<svg id="Capa_1" data-name="Capa 1" xmlns="http://www.w3.org/2000/svg" viewBox="0 0 18.05 18.21"><defs><style>.cls-1{fill:#606060;fill-rule:evenodd;}</style></defs><title>aaaMesa de trabajo 58-</title><polygon class="cls-1" points="2.92 0.21 3.01 0.3 3.09 0.39 3.09 0.56 3.18 0.65 3.27 0.65 3.36 0.65 3.53 0.74 3.71 0.74 3.79 0.74 3.97 0.82 4.14 0.82 4.32 0.82 4.41 0.91 4.58 0.91 4.76 1 4.84 1 5.11 1 5.19 1 5.28 1.09 5.37 1.09 5.54 1.09 5.72 1.18 5.81 1.18 5.89 1.26 5.98 1.26 6.07 1.26 6.16 1.35 6.33 1.44 6.42 1.44 6.5 1.53 6.5 1.62 6.5 1.71 6.5 1.79 6.5 1.88 6.59 1.88 6.68 1.88 6.77 1.79 6.86 1.79 6.77 1.88 6.86 1.97 6.94 1.97 7.12 2.06 7.21 2.06 7.38 2.06 7.47 2.06 7.55 2.06 7.64 1.97 7.82 1.97 7.91 2.06 7.91 2.14 8.08 2.14 8.17 2.23 8.26 2.23 8.34 2.23 8.43 2.32 8.43 2.4 8.52 2.49 8.52 2.58 8.52 2.67 8.52 2.75 8.52 2.84 8.43 2.93 8.43 3.02 8.52 3.1 8.43 3.19 8.34 3.28 8.34 3.37 8.34 3.46 8.43 3.46 8.52 3.54 8.61 3.54 8.69 3.54 8.69 3.63 8.78 3.63 8.87 3.72 8.96 3.72 9.04 3.8 9.13 3.89 9.22 3.89 9.3 3.89 9.39 3.89 9.57 3.89 9.65 3.89 9.83 3.89 9.92 3.8 10 3.72 10.09 3.72 10.18 3.8 10.18 3.89 10.27 3.89 10.27 3.98 10.35 4.07 10.44 4.07 10.53 4.15 10.53 4.24 10.62 4.24 10.62 4.33 10.62 4.42 10.62 4.59 10.62 4.68 10.7 4.68 10.7 4.59 10.79 4.59 10.79 4.5 10.79 4.42 10.88 4.33 10.88 4.24 10.97 4.24 11.05 4.24 11.23 4.24 11.4 4.24 11.49 4.15 11.67 4.15 11.75 4.15 11.93 4.15 12.02 4.15 12.19 4.15 12.37 4.15 12.54 4.07 12.63 4.07 12.72 4.15 12.8 4.15 12.89 4.15 12.89 4.24 12.98 4.33 13.07 4.42 13.15 4.42 13.24 4.5 13.33 4.5 13.42 4.59 13.42 4.68 13.42 4.85 13.5 4.94 13.5 5.03 13.59 5.12 13.59 5.2 13.59 5.29 13.68 5.38 13.59 5.47 13.59 5.56 13.59 5.65 13.5 5.65 13.5 5.73 13.59 5.82 13.59 5.91 13.68 6 13.68 6.17 13.85 6.17 13.85 6.26 13.94 6.26 14.03 6.35 14.12 6.43 14.12 6.52 14.12 6.61 14.2 6.7 14.29 6.7 14.37 6.78 14.37 6.87 14.46 6.96 14.55 7.05 14.63 7.13 14.72 7.13 14.72 7.22 14.72 7.31 14.81 7.4 14.9 7.48 14.9 7.57 14.98 7.57 15.07 7.66 15.16 7.75 15.25 7.83 15.25 7.92 15.34 8.01 15.34 8.1 15.34 8.18 15.34 8.27 15.42 8.27 15.42 8.36 15.42 8.62 15.51 8.71 15.69 8.8 15.77 8.71 15.95 8.71 16.04 8.71 16.21 8.88 16.3 9.06 16.3 9.23 16.3 9.32 16.39 9.5 16.47 9.59 16.56 9.76 16.65 9.85 16.65 9.94 16.65 10.03 16.65 10.11 16.73 10.2 16.73 10.29 16.65 10.38 16.56 10.38 16.56 10.46 16.56 10.55 16.56 10.64 16.47 10.73 16.47 10.81 16.47 10.99 16.39 11.16 16.39 11.25 16.39 11.34 16.3 11.43 16.39 11.43 16.47 11.51 16.39 11.51 16.3 11.51 16.3 11.6 16.39 11.69 16.47 11.78 16.56 11.78 16.65 11.95 16.65 12.04 16.73 12.13 16.91 12.13 16.91 12.21 16.91 12.13 17 12.13 17.09 12.13 17.09 12.21 17.17 12.21 17.26 12.21 17.35 12.3 17.52 12.39 17.43 12.39 17.35 12.39 17.26 12.48 17.17 12.56 17.09 12.74 16.91 12.83 16.73 13 16.65 13.09 16.56 13.26 16.3 13.53 16.21 13.79 16.12 13.79 16.12 13.88 16.04 13.97 16.04 14.06 16.04 13.97 15.95 13.88 15.86 13.79 15.77 13.71 15.77 13.62 15.69 13.62 15.6 13.62 15.42 13.79 15.34 13.97 15.25 14.06 15.16 14.06 15.07 14.06 14.98 14.06 14.9 14.06 14.9 13.97 14.81 13.97 14.81 13.88 14.72 13.88 14.63 13.88 14.63 13.79 14.55 13.79 14.46 13.79 14.37 13.79 14.37 13.88 14.37 13.97 14.29 14.06 14.2 14.06 14.2 14.14 14.2 14.23 14.12 14.23 14.03 14.23 14.03 14.32 13.94 14.32 13.85 14.32 13.77 14.32 13.77 14.41 13.68 14.41 13.59 14.49 13.5 14.49 13.42 14.58 13.42 14.67 13.33 14.67 13.33 14.76 13.24 14.76 13.24 14.67 13.15 14.67 13.15 14.76 13.07 14.76 12.98 14.76 12.98 14.67 12.89 14.76 12.89 14.84 12.89 14.93 12.89 15.02 12.8 15.02 12.8 15.11 12.8 15.02 12.72 15.02 12.63 15.02 12.63 15.11 12.54 15.19 12.54 15.28 12.45 15.37 12.45 15.46 12.37 15.46 12.37 15.54 12.37 15.63 12.28 15.63 12.28 15.72 12.28 15.8 12.28 15.89 12.28 15.98 12.28 16.07 12.19 16.07 12.28 16.16 12.19 16.16 12.19 16.24 12.1 16.16 12.02 16.16 12.02 16.24 12.02 16.33 11.93 16.33 11.93 16.42 11.84 16.42 11.75 16.42 11.75 16.5 11.75 16.59 11.67 16.59 11.67 16.68 11.58 16.77 11.49 16.77 11.49 16.86 11.4 16.86 11.23 16.94 11.14 16.94 11.05 16.94 10.97 16.94 10.88 16.94 10.79 16.94 10.7 16.94 10.62 16.94 10.53 17.03 10.44 17.03 10.35 17.03 10.27 17.03 10.09 17.03 10 16.94 9.92 16.94 9.74 16.94 9.65 16.86 9.57 16.86 9.57 16.77 9.48 16.68 9.48 16.5 9.48 16.42 9.39 16.33 9.39 16.24 9.3 16.16 9.22 16.07 9.22 15.98 9.13 15.8 9.04 15.72 9.04 15.63 9.04 15.54 8.96 15.46 8.96 15.37 8.87 15.28 8.87 15.19 8.87 15.11 8.78 15.02 8.78 14.93 8.78 14.84 8.69 14.76 8.52 14.67 8.43 14.58 8.34 14.58 8.26 14.58 8.17 14.58 8.08 14.58 7.99 14.58 7.91 14.58 7.91 14.67 7.82 14.76 7.82 14.84 7.82 14.93 7.73 14.93 7.73 15.02 7.64 15.11 7.55 15.19 7.55 15.28 7.47 15.37 7.38 15.46 7.38 15.54 7.29 15.63 7.29 15.72 7.29 15.8 7.21 15.8 7.12 15.8 7.03 15.8 6.94 15.72 6.86 15.63 6.77 15.72 6.68 15.72 6.59 15.72 6.5 15.72 6.42 15.72 6.33 15.63 6.24 15.46 6.07 15.37 5.89 15.28 5.81 15.19 5.72 15.19 5.63 15.28 5.63 15.46 5.63 15.54 5.72 15.72 5.63 15.8 5.63 15.89 5.63 16.07 5.72 16.07 5.54 16.16 5.46 16.16 5.46 16.24 5.37 16.33 5.37 16.42 5.37 16.5 5.28 16.59 5.19 16.77 5.11 16.77 5.02 16.86 4.93 17.03 4.93 17.12 4.84 17.12 4.76 17.2 4.67 17.29 4.67 17.38 4.67 17.47 4.67 17.56 4.58 17.56 4.41 17.65 4.32 17.73 4.23 17.73 4.06 17.73 3.88 17.73 3.71 17.82 3.53 17.91 3.36 18 3.09 18.09 3.01 18.09 2.92 18.09 2.92 18 2.92 17.82 2.92 17.73 2.83 17.73 2.83 17.65 2.74 17.56 2.66 17.56 2.66 17.47 2.57 17.47 2.57 17.56 2.48 17.56 2.39 17.47 2.39 17.38 2.31 17.38 2.31 17.29 2.22 17.29 2.22 17.2 2.13 17.12 2.13 17.03 2.13 16.94 2.13 16.86 2.13 16.77 2.13 16.68 2.04 16.59 2.04 16.5 2.04 16.42 1.96 16.33 1.87 16.24 1.87 16.16 1.78 16.16 1.78 16.07 1.69 15.89 1.69 15.8 1.69 15.72 1.78 15.54 1.87 15.54 1.96 15.46 1.96 15.37 1.96 15.28 2.04 15.19 2.04 15.11 2.04 15.02 1.96 14.93 1.96 14.84 2.04 14.76 2.04 14.67 2.04 14.58 1.96 14.49 1.87 14.49 1.78 14.49 1.69 14.41 1.69 14.32 1.69 14.23 1.61 14.23 1.61 14.32 1.52 14.32 1.43 14.32 1.34 14.32 1.34 14.23 1.17 14.23 1.08 14.23 0.99 14.23 0.91 14.23 0.91 14.14 0.82 14.14 0.82 14.06 0.91 13.97 0.91 13.88 0.91 13.79 0.99 13.79 0.99 13.88 0.99 13.97 0.99 14.06 1.08 13.97 1.08 13.88 1.08 13.79 1.08 13.71 1.08 13.62 1.08 13.53 0.99 13.62 0.91 13.62 0.91 13.53 0.99 13.44 1.08 13.44 1.08 13.35 1.08 13.26 0.99 13.18 0.99 13.09 0.99 13 0.99 12.91 0.91 12.91 0.91 12.83 0.91 12.74 0.91 12.65 0.82 12.65 0.73 12.56 0.82 12.48 0.82 12.39 0.73 12.39 0.73 12.3 0.64 12.3 0.56 12.3 0.56 12.21 0.47 12.13 0.56 12.04 0.47 11.95 0.47 11.86 0.47 11.78 0.47 11.69 0.47 11.6 0.56 11.51 0.56 11.43 0.56 11.34 0.56 11.25 0.56 11.16 0.47 11.16 0.47 11.25 0.47 11.34 0.38 11.43 0.3 11.43 0.21 11.43 0.21 11.25 0.13 11.16 0.13 11.08 0.21 10.99 0.21 10.81 0.21 10.73 0.21 10.64 0.3 10.55 0.38 10.46 0.38 10.38 0.3 10.29 0.38 10.2 0.47 10.29 0.47 10.38 0.56 10.29 0.47 10.2 0.47 10.11 0.47 10.03 0.56 9.94 0.64 9.94 0.82 9.94 0.82 9.85 0.82 9.76 0.91 9.76 0.91 9.85 0.99 9.85 1.08 9.85 1.17 9.94 1.17 9.85 1.17 9.76 1.17 9.68 1.26 9.68 1.26 9.59 1.34 9.5 1.34 9.41 1.43 9.32 1.34 9.32 1.34 9.23 1.43 9.15 1.43 9.06 1.43 8.97 1.52 8.88 1.61 8.8 1.61 8.71 1.69 8.71 1.78 8.62 1.69 8.62 1.78 8.53 1.87 8.53 1.87 8.45 1.87 8.36 1.87 8.27 1.96 8.27 1.96 8.18 2.04 8.1 2.04 8.01 2.04 7.92 2.04 7.83 2.13 7.83 2.22 7.75 2.31 7.83 2.39 7.83 2.48 7.66 2.48 7.57 2.57 7.48 2.48 7.4 2.57 7.4 2.66 7.4 2.66 7.31 2.74 7.31 2.66 7.22 2.66 7.13 2.57 7.13 2.48 7.05 2.48 6.96 2.48 6.87 2.48 6.78 2.48 6.7 2.48 6.61 2.39 6.61 2.39 6.7 2.31 6.7 2.31 6.78 2.22 6.78 2.13 6.78 2.13 6.7 2.22 6.7 2.22 6.61 2.31 6.52 2.22 6.43 2.13 6.43 2.04 6.35 2.04 6.26 2.13 6.17 2.13 6.08 2.04 6.08 2.04 6 1.96 6 2.04 5.82 1.96 5.73 1.96 5.82 1.87 5.82 1.87 5.73 1.87 5.65 1.87 5.56 1.78 5.56 1.78 5.47 1.78 5.38 1.78 5.29 1.87 5.29 1.87 5.2 1.78 5.2 1.69 5.12 1.69 5.03 1.61 4.94 1.61 4.85 1.69 4.77 1.69 4.68 1.69 4.59 1.78 4.5 1.69 4.42 1.69 4.33 1.61 4.33 1.61 4.24 1.61 4.15 1.52 4.07 1.43 4.07 1.43 3.98 1.34 3.98 1.34 3.89 1.34 3.8 1.34 3.72 1.34 3.63 1.43 3.63 1.43 3.54 1.43 3.46 1.34 3.46 1.34 3.37 1.34 3.28 1.34 3.1 1.34 3.02 1.34 2.93 1.43 2.84 1.52 2.75 1.61 2.67 1.61 2.58 1.69 2.49 1.69 2.4 1.78 2.4 1.78 2.32 1.78 2.23 1.69 2.23 1.69 2.14 1.61 2.06 1.61 1.97 1.69 1.97 1.69 1.88 1.78 1.79 1.78 1.71 1.69 1.71 1.61 1.71 1.61 1.62 1.69 1.62 1.78 1.71 1.78 1.62 1.78 1.53 1.78 1.44 1.78 1.35 1.87 1.26 1.87 1.18 1.78 1.18 1.78 1.26 1.78 1.18 1.78 1.09 1.69 1.09 1.69 1 1.69 0.91 1.78 0.82 1.78 0.74 1.69 0.65 1.78 0.65 1.78 0.56 1.69 0.47 1.61 0.39 1.69 0.39 1.78 0.39 1.78 0.3 1.78 0.21 1.87 0.21 1.87 0.3 1.96 0.3 1.96 0.21 2.04 0.21 2.04 0.3 2.13 0.3 2.22 0.3 2.31 0.3 2.48 0.21 2.57 0.21 2.66 0.21 2.74 0.21 2.74 0.13 2.83 0.13 2.92 0.13 2.92 0.21"/></svg>