<svg id="Capa_1" data-name="Capa 1" xmlns="http://www.w3.org/2000/svg" viewBox="0 0 113.4 90.12"><defs><style>.cls-1{fill:#606060;fill-rule:evenodd;}</style></defs><title>aaaMesa de trabajo 7-</title><polygon class="cls-1" points="113.19 46.9 113.19 46.82 113.19 46.73 113.19 46.64 113.1 46.64 113.1 46.55 113.19 46.55 113.19 46.47 113.1 46.38 113.1 46.29 113.1 46.2 113.01 46.2 112.93 46.2 112.84 46.2 112.84 46.29 112.75 46.29 112.66 46.29 112.58 46.29 112.49 46.29 112.49 46.2 112.4 46.2 112.31 46.2 112.23 46.2 112.14 46.2 112.05 46.2 111.96 46.2 111.88 46.2 111.79 46.2 111.7 46.2 111.61 46.2 111.61 46.11 111.53 46.11 111.53 46.02 111.53 45.94 111.53 45.85 111.44 45.85 111.35 45.85 111.26 45.85 111.18 45.85 111.09 45.85 111 45.85 111 45.94 110.91 45.94 110.91 46.02 110.83 46.02 110.75 46.02 110.75 46.11 110.75 46.2 110.66 46.2 110.57 46.2 110.48 46.2 110.48 46.11 110.39 46.11 110.39 46.02 110.31 46.02 110.22 46.02 110.22 45.94 110.31 45.94 110.22 45.85 110.22 45.76 110.13 45.76 110.13 45.85 110.13 45.94 110.05 45.94 109.96 45.94 109.87 45.94 109.78 45.94 109.78 46.02 109.78 46.11 109.69 46.11 109.69 46.2 109.61 46.2 109.61 46.29 109.52 46.38 109.43 46.38 109.43 46.47 109.34 46.47 109.26 46.47 109.17 46.47 109.08 46.47 109 46.55 109 46.64 108.91 46.64 108.91 46.73 108.82 46.73 108.82 46.82 108.73 46.82 108.82 46.9 108.82 46.99 108.73 46.99 108.64 46.99 108.56 47.08 108.56 47.17 108.56 47.25 108.47 47.25 108.47 47.34 108.38 47.34 108.3 47.34 108.21 47.25 108.21 47.34 108.12 47.34 108.03 47.34 107.95 47.34 107.95 47.43 107.86 47.52 107.77 47.52 107.77 47.6 107.68 47.6 107.6 47.6 107.51 47.6 107.51 47.69 107.6 47.78 107.6 47.87 107.68 47.87 107.68 47.95 107.68 48.04 107.68 48.13 107.6 48.13 107.6 48.22 107.51 48.22 107.42 48.3 107.42 48.39 107.33 48.39 107.25 48.39 107.16 48.39 107.07 48.39 107.07 48.48 107.07 48.56 107.07 48.65 107.07 48.74 107.07 48.83 106.98 48.83 106.9 48.83 106.9 48.91 106.9 49 106.9 49.09 106.81 49.18 106.81 49.27 106.72 49.27 106.63 49.35 106.55 49.35 106.46 49.44 106.46 49.53 106.46 49.62 106.46 49.7 106.46 49.79 106.46 49.88 106.37 49.88 106.28 49.88 106.28 49.97 106.2 49.97 106.11 49.97 106.11 49.88 106.02 49.88 106.02 49.79 105.93 49.79 105.93 49.88 105.93 49.97 105.93 50.05 105.93 50.15 105.85 50.15 105.85 50.23 105.85 50.32 105.85 50.41 105.85 50.49 105.76 50.49 105.76 50.58 105.76 50.67 105.67 50.67 105.67 50.58 105.58 50.58 105.5 50.58 105.5 50.49 105.41 50.58 105.32 50.58 105.32 50.67 105.32 50.76 105.32 50.84 105.23 50.84 105.23 50.76 105.15 50.76 105.06 50.76 105.06 50.84 105.06 50.93 105.06 51.02 104.97 51.02 104.88 51.02 104.8 50.93 104.8 50.84 104.71 50.84 104.62 50.84 104.62 50.93 104.62 51.02 104.53 51.02 104.53 51.11 104.53 51.2 104.53 51.28 104.62 51.28 104.71 51.37 104.62 51.46 104.53 51.46 104.53 51.37 104.45 51.37 104.45 51.46 104.45 51.55 104.45 51.63 104.36 51.63 104.36 51.72 104.27 51.72 104.18 51.72 104.1 51.72 104.01 51.63 103.92 51.55 103.83 51.55 103.83 51.63 103.75 51.63 103.75 51.72 103.75 51.81 103.66 51.81 103.66 51.72 103.57 51.72 103.48 51.72 103.48 51.63 103.4 51.63 103.31 51.63 103.22 51.55 103.13 51.55 103.13 51.63 103.22 51.63 103.22 51.72 103.22 51.81 103.13 51.81 103.05 51.72 102.96 51.72 102.87 51.81 102.78 51.81 102.78 51.9 102.7 51.9 102.7 51.98 102.7 52.07 102.61 52.07 102.61 51.98 102.52 51.98 102.52 51.9 102.52 51.81 102.52 51.72 102.44 51.72 102.35 51.72 102.35 51.81 102.35 51.9 102.26 51.9 102.17 51.9 102.08 51.9 102 51.9 101.91 51.9 101.82 51.9 101.73 51.9 101.73 51.98 101.73 52.07 101.65 52.07 101.65 52.16 101.73 52.24 101.73 52.33 101.82 52.33 101.82 52.42 101.73 52.42 101.65 52.42 101.56 52.42 101.47 52.42 101.39 52.42 101.3 52.42 101.21 52.42 101.21 52.51 101.12 52.51 101.12 52.59 101.03 52.68 100.95 52.68 100.86 52.59 100.86 52.51 100.86 52.42 100.95 52.42 100.95 52.33 100.95 52.24 100.86 52.16 100.77 52.16 100.69 52.16 100.69 52.24 100.6 52.33 100.6 52.42 100.51 52.42 100.42 52.42 100.42 52.51 100.42 52.59 100.33 52.59 100.25 52.59 100.16 52.59 100.07 52.59 100.07 52.51 100.07 52.42 99.98 52.42 99.9 52.42 99.9 52.51 99.81 52.51 99.72 52.51 99.64 52.51 99.55 52.59 99.46 52.59 99.46 52.68 99.37 52.77 99.37 52.86 99.28 52.86 99.2 52.86 99.2 52.95 99.2 53.03 99.28 53.03 99.28 53.12 99.2 53.12 99.11 53.12 99.02 53.12 98.94 53.21 98.85 53.21 98.76 53.21 98.67 53.21 98.59 53.21 98.59 53.12 98.5 53.12 98.5 53.03 98.41 52.95 98.32 52.95 98.24 52.95 98.24 53.03 98.24 53.12 98.15 53.12 98.06 53.03 98.06 53.12 98.06 53.21 98.06 53.29 98.06 53.38 98.15 53.38 98.24 53.38 98.32 53.38 98.32 53.47 98.32 53.56 98.24 53.56 98.24 53.64 98.15 53.64 98.15 53.56 98.06 53.56 97.97 53.56 97.97 53.47 97.89 53.47 97.8 53.47 97.71 53.47 97.62 53.47 97.54 53.56 97.54 53.64 97.62 53.64 97.62 53.73 97.54 53.73 97.54 53.82 97.62 53.82 97.71 53.82 97.8 53.82 97.8 53.91 97.8 53.99 97.8 54.08 97.89 54.17 97.89 54.26 97.89 54.35 97.8 54.35 97.71 54.35 97.62 54.35 97.62 54.44 97.54 54.44 97.54 54.52 97.54 54.61 97.62 54.61 97.71 54.61 97.8 54.61 97.8 54.7 97.8 54.79 97.71 54.79 97.71 54.88 97.71 54.96 97.71 55.05 97.62 55.05 97.62 55.14 97.54 55.14 97.45 55.14 97.45 55.22 97.45 55.31 97.45 55.4 97.36 55.4 97.36 55.31 97.27 55.31 97.27 55.4 97.27 55.49 97.27 55.57 97.19 55.57 97.1 55.66 97.01 55.66 96.92 55.66 96.84 55.66 96.84 55.57 96.75 55.57 96.75 55.49 96.67 55.49 96.58 55.49 96.58 55.4 96.49 55.4 96.49 55.31 96.4 55.31 96.4 55.22 96.4 55.14 96.32 55.14 96.32 55.22 96.23 55.22 96.14 55.31 96.05 55.31 96.05 55.22 95.97 55.31 95.88 55.22 95.79 55.22 95.79 55.31 95.7 55.31 95.79 55.4 95.79 55.49 95.88 55.49 95.79 55.57 95.7 55.57 95.62 55.57 95.53 55.57 95.44 55.57 95.35 55.57 95.27 55.66 95.35 55.75 95.44 55.75 95.44 55.84 95.53 55.92 95.53 56.01 95.53 56.1 95.44 56.1 95.44 56.01 95.35 56.01 95.27 55.92 95.27 55.84 95.18 55.84 95.18 55.75 95.09 55.75 95 55.75 94.92 55.75 94.92 55.66 94.83 55.66 94.74 55.57 94.74 55.49 94.66 55.49 94.66 55.4 94.66 55.31 94.66 55.22 94.66 55.14 94.66 55.05 94.66 54.96 94.57 54.88 94.57 54.79 94.57 54.7 94.57 54.61 94.48 54.61 94.48 54.52 94.48 54.44 94.48 54.35 94.48 54.26 94.39 54.26 94.39 54.17 94.39 54.08 94.31 53.99 94.31 53.91 94.31 53.82 94.31 53.73 94.22 53.64 94.22 53.56 94.22 53.47 94.22 53.38 94.13 53.38 94.13 53.29 94.22 53.21 94.22 53.12 94.22 53.03 94.13 53.03 94.13 52.95 94.13 52.86 94.04 52.86 94.04 52.77 94.04 52.68 94.04 52.59 93.95 52.51 93.95 52.42 93.95 52.33 93.87 52.24 93.87 52.16 93.87 52.07 93.87 51.98 93.87 51.9 93.87 51.81 93.87 51.72 93.78 51.72 93.78 51.63 93.69 51.63 93.69 51.55 93.69 51.46 93.61 51.37 93.61 51.28 93.61 51.2 93.61 51.11 93.52 51.11 93.52 51.02 93.52 50.93 93.43 50.84 93.43 50.76 93.43 50.67 93.43 50.58 93.43 50.49 93.43 50.41 93.52 50.41 93.52 50.32 93.43 50.32 93.34 50.32 93.34 50.41 93.25 50.41 93.25 50.49 93.25 50.58 93.25 50.67 93.17 50.67 93.08 50.67 92.99 50.67 92.99 50.58 92.91 50.58 92.91 50.49 92.91 50.41 92.82 50.41 92.82 50.32 92.82 50.23 92.73 50.23 92.64 50.32 92.56 50.32 92.56 50.23 92.47 50.23 92.47 50.15 92.38 50.15 92.29 50.15 92.29 50.05 92.2 50.05 92.12 50.05 92.03 50.05 91.94 50.15 91.86 50.15 91.77 50.15 91.77 50.05 91.68 50.05 91.59 50.05 91.59 49.97 91.5 49.97 91.42 49.97 91.33 49.97 91.24 49.97 91.16 50.05 91.16 50.15 91.24 50.15 91.24 50.23 91.24 50.32 91.16 50.32 91.16 50.41 91.07 50.41 90.98 50.41 90.89 50.49 90.81 50.49 90.72 50.58 90.63 50.67 90.63 50.76 90.63 50.84 90.63 50.93 90.63 51.02 90.54 51.11 90.46 51.11 90.46 51.2 90.37 51.2 90.37 51.28 90.28 51.28 90.19 51.2 90.19 51.11 90.11 51.11 90.11 51.02 90.02 51.02 90.02 50.93 89.93 50.93 89.93 50.84 89.84 50.84 89.76 50.76 89.76 50.67 89.67 50.67 89.58 50.67 89.49 50.67 89.49 50.58 89.41 50.58 89.32 50.49 89.23 50.49 89.14 50.41 89.06 50.49 88.97 50.49 88.88 50.49 88.88 50.58 88.79 50.58 88.71 50.58 88.62 50.58 88.53 50.49 88.44 50.41 88.36 50.41 88.36 50.32 88.27 50.32 88.27 50.23 88.18 50.15 88.18 50.05 88.18 49.97 88.09 49.97 88.09 49.88 88.01 49.88 88.01 49.79 88.01 49.7 88.01 49.62 88.01 49.53 87.92 49.44 88.01 49.35 88.01 49.27 88.01 49.18 88.01 49.09 88.01 49 88.01 48.91 88.09 48.91 88.09 48.83 88.09 48.74 88.09 48.65 88.18 48.65 88.18 48.56 88.18 48.48 88.18 48.39 88.09 48.39 88.09 48.3 88.01 48.3 88.01 48.22 87.92 48.22 87.92 48.13 87.83 48.13 87.83 48.04 87.74 48.04 87.66 48.04 87.57 48.04 87.48 48.13 87.48 48.22 87.48 48.3 87.48 48.39 87.48 48.48 87.48 48.56 87.48 48.65 87.48 48.74 87.39 48.83 87.39 48.91 87.31 48.91 87.31 49 87.22 49.09 87.13 49.09 87.04 49.18 86.96 49.18 86.87 49.18 86.78 49.18 86.69 49.27 86.61 49.35 86.61 49.44 86.61 49.53 86.61 49.62 86.61 49.7 86.61 49.79 86.69 49.79 86.69 49.88 86.69 49.97 86.69 50.05 86.69 50.15 86.61 50.15 86.61 50.23 86.52 50.23 86.52 50.32 86.43 50.32 86.34 50.41 86.26 50.41 86.17 50.49 86.08 50.49 86.08 50.58 86.08 50.67 85.99 50.67 85.99 50.76 85.91 50.76 85.91 50.84 85.82 50.84 85.73 50.84 85.64 50.84 85.64 50.93 85.56 51.02 85.56 51.11 85.47 51.2 85.47 51.28 85.47 51.37 85.47 51.46 85.38 51.46 85.38 51.55 85.3 51.63 85.3 51.72 85.3 51.81 85.21 51.81 85.21 51.9 85.12 51.98 85.12 52.07 85.03 52.16 85.03 52.24 84.94 52.33 84.94 52.42 84.94 52.51 84.94 52.59 84.94 52.68 84.86 52.68 84.77 52.68 84.68 52.77 84.59 52.77 84.51 52.77 84.42 52.77 84.42 52.68 84.42 52.59 84.33 52.51 84.33 52.42 84.25 52.42 84.25 52.33 84.16 52.33 84.07 52.33 83.98 52.42 83.89 52.42 83.89 52.33 83.81 52.33 83.63 52.33 83.55 52.24 83.46 52.24 83.37 52.24 83.28 52.24 83.19 52.24 83.11 52.16 83.02 52.16 82.93 52.16 82.85 52.16 82.76 52.33 82.68 52.51 82.68 52.59 82.59 52.59 82.59 52.51 82.5 52.51 82.41 52.51 82.41 52.42 82.41 52.33 82.5 52.33 82.41 52.24 82.33 52.16 82.24 52.16 82.24 52.07 82.15 52.07 82.15 51.98 82.06 51.98 81.98 51.98 81.89 51.98 81.8 51.98 81.71 51.98 81.63 51.98 81.63 51.9 81.54 51.9 81.54 51.98 81.54 52.07 81.45 52.07 81.45 51.98 81.36 51.98 81.36 52.07 81.36 52.16 81.28 52.16 81.19 52.07 81.1 51.98 81.01 51.98 80.93 51.98 80.93 52.07 81.01 52.07 81.01 52.16 80.93 52.24 80.93 52.33 80.84 52.33 80.84 52.42 80.93 52.51 80.84 52.51 80.84 52.59 80.75 52.59 80.66 52.68 80.58 52.68 80.49 52.59 80.49 52.51 80.49 52.42 80.49 52.33 80.49 52.24 80.4 52.24 80.4 52.16 80.31 52.24 80.31 52.33 80.31 52.42 80.31 52.51 80.23 52.51 80.23 52.42 80.14 52.42 80.14 52.51 80.05 52.51 79.96 52.51 79.96 52.59 79.88 52.59 79.79 52.59 79.79 52.51 79.7 52.51 79.61 52.51 79.61 52.59 79.53 52.59 79.53 52.51 79.44 52.51 79.44 52.42 79.44 52.33 79.35 52.33 79.35 52.42 79.35 52.51 79.26 52.51 79.26 52.59 79.26 52.68 79.35 52.68 79.35 52.77 79.44 52.77 79.44 52.86 79.35 52.86 79.35 52.95 79.26 52.95 79.26 52.86 79.18 52.86 79.18 52.95 79.09 53.03 79.09 53.12 79 53.12 78.91 53.03 78.91 52.95 78.83 52.95 78.83 52.86 78.74 52.86 78.74 52.77 78.65 52.77 78.65 52.68 78.65 52.59 78.56 52.51 78.56 52.42 78.48 52.42 78.48 52.51 78.48 52.59 78.39 52.59 78.39 52.68 78.3 52.68 78.3 52.59 78.21 52.51 78.13 52.51 78.13 52.42 78.04 52.42 77.95 52.51 78.04 52.51 78.04 52.59 77.95 52.59 77.86 52.59 77.86 52.68 77.78 52.68 77.78 52.59 77.69 52.59 77.6 52.59 77.6 52.68 77.52 52.68 77.43 52.59 77.34 52.59 77.25 52.59 77.17 52.59 77.08 52.59 77.08 52.68 77.08 52.77 77.08 52.86 76.99 52.86 76.9 52.86 76.81 52.86 76.73 52.86 76.73 52.77 76.81 52.77 76.81 52.68 76.81 52.59 76.73 52.59 76.73 52.68 76.64 52.77 76.55 52.77 76.55 52.68 76.55 52.59 76.55 52.51 76.64 52.51 76.64 52.42 76.73 52.42 76.73 52.33 76.81 52.33 76.73 52.24 76.73 52.16 76.73 52.07 76.73 51.98 76.64 51.98 76.55 51.98 76.47 51.98 76.47 51.9 76.47 51.81 76.47 51.72 76.47 51.63 76.38 51.63 76.38 51.55 76.29 51.55 76.29 51.46 76.2 51.46 76.11 51.46 76.11 51.55 76.11 51.63 76.03 51.55 76.03 51.46 75.94 51.46 75.94 51.37 75.85 51.37 75.77 51.37 75.77 51.46 75.77 51.55 75.85 51.55 75.85 51.63 75.77 51.63 75.68 51.63 75.59 51.63 75.59 51.55 75.5 51.55 75.5 51.46 75.42 51.46 75.42 51.37 75.33 51.37 75.24 51.37 75.24 51.28 75.24 51.2 75.15 51.11 75.06 51.11 74.98 51.11 74.98 51.02 75.06 51.02 75.15 51.02 75.24 51.02 75.33 51.02 75.33 50.93 75.33 50.84 75.33 50.76 75.33 50.67 75.33 50.58 75.24 50.58 75.24 50.49 75.15 50.49 75.15 50.41 75.06 50.41 75.06 50.32 75.15 50.32 75.15 50.23 75.24 50.23 75.24 50.15 75.24 50.05 75.15 49.97 75.15 49.88 75.15 49.79 75.24 49.79 75.24 49.7 75.24 49.62 75.33 49.62 75.33 49.53 75.42 49.53 75.42 49.44 75.33 49.44 75.33 49.35 75.33 49.27 75.33 49.18 75.42 49.18 75.5 49.18 75.59 49.18 75.68 49.18 75.68 49.09 75.77 49.09 75.77 49 75.85 49 75.85 48.91 75.94 48.91 75.94 49 75.94 49.09 76.03 49.09 76.11 49.09 76.2 49 76.2 48.91 76.29 48.91 76.38 48.91 76.38 49 76.47 49 76.55 49 76.55 48.91 76.64 48.91 76.73 48.91 76.73 49 76.81 49 76.81 49.09 76.9 49.09 76.9 49.18 76.99 49.09 76.99 49 76.99 48.91 76.99 48.83 76.99 48.74 77.08 48.74 77.17 48.65 77.25 48.65 77.25 48.56 77.34 48.56 77.43 48.56 77.43 48.48 77.43 48.39 77.43 48.3 77.43 48.22 77.43 48.13 77.43 48.04 77.43 47.95 77.43 47.87 77.43 47.78 77.43 47.69 77.43 47.6 77.34 47.6 77.34 47.52 77.25 47.52 77.17 47.52 77.17 47.43 77.08 47.43 76.99 47.43 76.99 47.52 76.99 47.6 76.9 47.69 76.9 47.6 76.81 47.6 76.81 47.52 76.81 47.43 76.81 47.34 76.81 47.25 76.81 47.17 76.81 47.08 76.73 47.08 76.73 46.99 76.64 46.99 76.55 46.99 76.55 47.08 76.47 47.08 76.38 46.99 76.47 46.9 76.55 46.9 76.55 46.82 76.64 46.82 76.64 46.73 76.64 46.64 76.64 46.55 76.64 46.47 76.64 46.38 76.64 46.29 76.55 46.29 76.55 46.2 76.47 46.2 76.47 46.29 76.38 46.29 76.38 46.38 76.38 46.47 76.47 46.47 76.47 46.55 76.47 46.64 76.38 46.64 76.29 46.64 76.2 46.73 76.11 46.73 76.03 46.64 75.94 46.64 75.94 46.55 75.85 46.55 75.85 46.47 75.85 46.38 75.94 46.38 76.03 46.38 76.11 46.29 76.2 46.29 76.2 46.2 76.29 46.11 76.2 46.11 76.2 46.02 76.11 46.02 76.03 46.02 76.03 45.94 75.94 45.94 75.94 45.85 75.85 45.85 75.85 45.76 75.85 45.67 75.94 45.67 75.94 45.59 75.85 45.59 75.77 45.59 75.77 45.67 75.68 45.67 75.59 45.67 75.5 45.59 75.5 45.5 75.5 45.41 75.5 45.32 75.42 45.32 75.42 45.24 75.33 45.24 75.24 45.24 75.15 45.24 75.06 45.24 75.06 45.15 75.06 45.06 74.98 45.06 74.89 45.06 74.89 44.97 74.89 44.89 74.98 44.89 74.98 44.8 74.89 44.8 74.8 44.71 74.72 44.71 74.72 44.8 74.63 44.8 74.54 44.8 74.45 44.8 74.45 44.71 74.45 44.62 74.54 44.62 74.54 44.54 74.54 44.45 74.63 44.45 74.63 44.36 74.63 44.27 74.54 44.19 74.45 44.19 74.45 44.1 74.36 44.1 74.36 44.01 74.28 43.92 74.28 43.84 74.19 43.84 74.19 43.75 74.1 43.66 74.02 43.57 73.93 43.57 73.93 43.49 73.84 43.49 73.75 43.4 73.58 43.31 73.49 43.31 73.32 43.22 73.23 43.14 73.14 43.14 73.05 43.14 72.97 43.14 72.97 43.22 72.88 43.22 72.88 43.31 72.88 43.4 72.79 43.4 72.79 43.49 72.7 43.49 72.62 43.49 72.62 43.4 72.7 43.31 72.7 43.22 72.7 43.14 72.7 43.05 72.7 42.96 72.7 42.87 72.7 42.79 72.62 42.79 72.53 42.7 72.53 42.61 72.44 42.61 72.35 42.52 72.35 42.44 72.27 42.35 72.27 42.26 72.18 42.17 72.18 42.08 72.18 41.99 72.18 41.91 72.27 41.91 72.35 41.82 72.44 41.82 72.44 41.73 72.53 41.73 72.62 41.64 72.62 41.56 72.62 41.47 72.62 41.38 72.62 41.29 72.62 41.21 72.62 41.12 72.7 41.03 72.7 40.94 72.7 40.86 72.79 40.86 72.79 40.94 72.88 40.94 72.97 40.94 73.05 40.94 73.05 40.86 73.14 40.86 73.23 40.86 73.32 40.77 73.4 40.68 73.4 40.59 73.49 40.59 73.49 40.51 73.49 40.42 73.4 40.33 73.49 40.33 73.49 40.24 73.4 40.24 73.4 40.16 73.32 40.16 73.23 40.16 73.14 40.16 73.05 40.07 73.05 39.98 73.14 39.98 73.23 39.98 73.23 40.07 73.32 40.07 73.32 39.98 73.4 39.89 73.32 39.89 73.32 39.81 73.23 39.81 73.14 39.89 73.05 39.89 73.05 39.81 73.05 39.72 73.14 39.72 73.14 39.63 73.23 39.63 73.32 39.63 73.32 39.54 73.4 39.54 73.4 39.46 73.4 39.37 73.4 39.28 73.4 39.19 73.4 39.11 73.49 39.11 73.49 39.02 73.49 38.93 73.58 38.84 73.67 38.76 73.75 38.67 73.84 38.67 73.84 38.58 73.84 38.49 73.93 38.49 73.93 38.41 74.02 38.41 74.1 38.41 74.1 38.32 74.19 38.23 74.19 38.15 74.28 38.15 74.36 38.15 74.45 38.15 74.45 38.05 74.45 37.96 74.45 37.88 74.54 37.79 74.63 37.7 74.72 37.61 74.8 37.61 74.89 37.61 74.98 37.61 74.98 37.53 75.06 37.44 75.06 37.35 75.15 37.26 75.24 37.18 75.33 37.18 75.42 37.18 75.42 37.09 75.5 37.09 75.59 37.09 75.68 37.09 75.77 37.09 75.85 37.09 75.94 37 76.03 37 76.11 37 76.2 37 76.29 37 76.38 36.91 76.47 36.91 76.55 36.91 76.64 36.91 76.73 36.91 76.81 36.91 76.9 36.83 76.99 36.83 77.08 36.83 77.17 36.83 77.25 36.83 77.34 36.83 77.43 36.83 77.43 36.74 77.43 36.65 77.34 36.65 77.34 36.56 77.25 36.56 77.25 36.48 77.25 36.39 77.25 36.3 77.25 36.22 77.34 36.22 77.34 36.13 77.43 36.13 77.52 36.13 77.52 36.04 77.43 35.95 77.43 35.87 77.43 35.78 77.43 35.69 77.52 35.69 77.6 35.69 77.6 35.6 77.69 35.6 77.69 35.52 77.78 35.52 77.78 35.6 77.86 35.6 77.86 35.52 77.95 35.52 77.95 35.43 77.95 35.34 78.04 35.34 78.04 35.25 78.13 35.25 78.13 35.16 78.13 35.08 78.04 35.08 78.04 34.99 77.95 34.9 77.95 34.81 77.95 34.73 78.04 34.73 78.04 34.64 78.13 34.64 78.13 34.73 78.21 34.73 78.3 34.73 78.3 34.64 78.39 34.64 78.48 34.55 78.56 34.47 78.65 34.47 78.65 34.38 78.74 34.38 78.74 34.29 78.83 34.29 78.91 34.2 79 34.12 79.09 34.12 79.09 34.02 79.18 33.94 79.18 33.85 79.26 33.76 79.35 33.67 79.35 33.59 79.26 33.59 79.18 33.5 79.09 33.5 79.09 33.41 78.91 33.41 78.91 33.5 78.83 33.5 78.74 33.5 78.65 33.59 78.56 33.59 78.48 33.5 78.39 33.5 78.3 33.5 78.21 33.5 78.13 33.59 78.04 33.67 78.04 33.85 77.86 33.85 77.78 33.85 77.6 33.76 77.52 33.76 77.43 33.76 77.34 33.76 77.25 33.85 77.17 33.85 77.08 33.85 76.99 33.76 76.9 33.67 76.81 33.67 76.73 33.59 76.64 33.59 76.55 33.59 76.47 33.67 76.38 33.67 76.29 33.67 76.2 33.67 76.11 33.67 76.11 33.76 76.03 33.76 75.94 33.76 75.85 33.76 75.77 33.76 75.59 33.76 75.5 33.76 75.42 33.85 75.33 33.85 75.33 33.94 75.42 33.94 75.33 34.02 75.33 34.12 75.24 34.12 75.15 34.2 75.06 34.2 74.98 34.2 74.89 34.12 74.8 34.12 74.8 34.02 74.72 34.02 74.63 34.02 74.54 34.12 74.45 34.12 74.36 34.12 74.36 34.02 74.28 33.94 74.19 33.94 74.19 33.85 74.1 33.85 74.02 33.85 73.93 33.85 73.93 33.76 73.84 33.85 73.84 33.76 73.75 33.76 73.67 33.76 73.58 33.76 73.49 33.76 73.4 33.67 73.32 33.67 73.32 33.59 73.23 33.59 73.23 33.5 73.14 33.5 73.05 33.5 72.97 33.5 72.88 33.59 72.79 33.67 72.7 33.67 72.62 33.67 72.53 33.76 72.35 33.76 72.27 33.76 72.18 33.76 72.09 33.76 72.09 33.85 72 33.85 71.92 33.85 71.83 33.85 71.74 33.85 71.65 33.85 71.57 33.85 71.48 33.94 71.39 33.94 71.3 33.94 71.22 33.94 71.13 33.94 71.04 33.85 70.95 33.85 70.95 33.94 70.87 33.94 70.78 34.02 70.69 34.02 70.52 33.94 70.43 33.94 70.34 33.94 70.25 33.85 70.17 33.85 70.08 33.94 69.99 33.94 69.9 33.94 69.82 33.85 69.73 33.85 69.64 33.94 69.55 33.94 69.47 33.94 69.38 33.94 69.29 33.94 69.2 33.85 69.12 33.85 69.03 33.85 68.94 33.85 68.86 33.85 68.77 33.85 68.69 33.85 68.51 33.94 68.51 34.02 68.51 34.12 68.42 34.2 68.33 34.29 68.25 34.29 68.16 34.38 68.16 34.29 68.07 34.29 67.98 34.2 67.9 34.12 67.81 34.12 67.72 34.2 67.64 34.29 67.55 34.29 67.46 34.29 67.37 34.29 67.28 34.29 67.2 34.29 67.2 34.2 67.11 34.2 67.11 34.12 67.02 34.12 66.94 34.12 66.94 34.02 66.85 34.02 66.76 34.02 66.76 33.94 66.67 33.94 66.59 33.94 66.5 33.85 66.41 33.76 66.41 33.67 66.41 33.59 66.32 33.59 66.24 33.59 66.24 33.67 66.24 33.76 66.15 33.85 66.06 33.85 66.06 33.76 65.97 33.76 65.89 33.76 65.8 33.76 65.8 33.67 65.8 33.59 65.8 33.5 65.8 33.41 65.71 33.41 65.71 33.32 65.8 33.32 65.89 33.32 65.89 33.23 65.89 33.15 65.89 33.06 65.89 32.97 65.89 32.88 65.89 32.8 65.8 32.71 65.71 32.71 65.62 32.71 65.54 32.62 65.45 32.62 65.36 32.62 65.36 32.71 65.27 32.8 65.19 32.8 65.1 32.71 65.1 32.62 65.19 32.62 65.27 32.62 65.27 32.53 65.36 32.45 65.27 32.36 65.27 32.27 65.27 32.19 65.36 32.19 65.36 32.1 65.36 32.01 65.27 31.92 65.27 31.84 65.19 31.75 65.1 31.75 65.01 31.75 65.01 31.66 65.01 31.57 65.01 31.48 64.92 31.4 64.92 31.31 64.92 31.22 64.92 31.14 64.84 31.14 64.84 31.05 64.75 31.05 64.75 30.96 64.66 30.96 64.57 30.87 64.57 30.79 64.49 30.79 64.4 30.79 64.4 30.7 64.31 30.7 64.22 30.7 64.14 30.61 64.05 30.61 64.05 30.52 63.96 30.52 63.96 30.44 63.87 30.35 63.79 30.35 63.7 30.26 63.7 30.17 63.7 30.09 63.61 29.99 63.52 29.91 63.44 29.82 63.35 29.73 63.26 29.64 63.17 29.55 63.17 29.47 63.09 29.38 63 29.29 62.91 29.21 62.91 29.12 62.82 29.12 62.74 29.03 62.65 28.94 62.65 28.86 62.56 28.77 62.47 28.68 62.39 28.51 62.3 28.42 62.3 28.33 62.21 28.24 62.21 28.07 62.12 28.07 62.12 27.98 62.04 27.98 61.86 27.98 61.69 27.98 61.6 27.98 61.51 27.98 61.34 27.98 61.25 27.98 61.16 28.07 61.07 28.16 61.07 28.24 60.99 28.33 60.9 28.42 60.81 28.42 60.73 28.42 60.64 28.42 60.55 28.51 60.46 28.59 60.38 28.68 60.29 28.77 60.2 28.77 60.11 28.86 60.02 28.86 59.94 28.94 59.94 29.03 60.02 29.21 60.02 29.29 60.11 29.38 60.11 29.47 60.2 29.55 60.29 29.55 60.38 29.55 60.46 29.64 60.55 29.64 60.55 29.73 60.64 29.82 60.64 29.91 60.55 29.99 60.46 30.09 60.55 30.26 60.55 30.35 60.55 30.52 60.46 30.52 60.38 30.52 60.29 30.44 60.2 30.44 60.11 30.44 60.02 30.44 59.85 30.44 59.67 30.44 59.41 30.61 59.33 30.61 59.24 30.7 59.06 30.79 58.98 30.79 58.8 30.79 58.63 30.79 58.45 30.79 58.36 30.79 58.1 30.79 57.92 30.7 57.84 30.7 57.58 30.61 57.4 30.52 57.23 30.35 57.05 30.26 56.96 30.17 56.88 30.09 56.79 30.09 56.7 30.09 56.61 30.09 56.53 30.09 56.35 30.09 56.35 29.99 56.26 29.99 56.09 29.99 56 29.91 55.91 29.91 55.83 29.91 55.74 29.91 55.65 29.91 55.65 29.99 55.56 29.99 55.56 30.09 55.56 30.17 55.48 30.26 55.48 30.35 55.39 30.35 55.3 30.35 55.21 30.35 55.13 30.35 55.13 30.26 55.13 30.17 55.13 30.09 55.04 30.09 55.04 29.99 54.96 29.99 54.87 29.99 54.69 29.91 54.61 29.91 54.52 29.91 54.34 29.82 54.26 29.73 54.17 29.73 54.08 29.82 53.99 29.82 53.82 29.73 53.73 29.64 53.56 29.55 53.56 29.47 53.47 29.38 53.29 29.29 53.12 29.29 52.95 29.38 52.86 29.38 52.77 29.38 52.68 29.38 52.68 29.47 52.59 29.47 52.59 29.55 52.51 29.64 52.51 29.73 52.33 29.73 52.16 29.64 51.98 29.64 51.9 29.64 51.81 29.64 51.72 29.64 51.63 29.73 51.55 29.64 51.46 29.64 51.46 29.55 51.46 29.47 51.46 29.38 51.46 29.29 51.46 29.21 51.46 29.12 51.37 29.03 51.28 29.03 51.2 29.12 51.11 29.12 51.02 29.12 50.93 29.12 50.84 29.12 50.84 29.21 50.76 29.29 50.76 29.38 50.67 29.38 50.58 29.47 50.49 29.47 50.41 29.38 50.32 29.29 50.32 29.21 50.23 29.21 50.23 29.12 50.15 29.03 50.06 28.94 49.97 28.94 49.88 29.03 49.8 29.03 49.71 29.03 49.62 29.12 49.62 29.21 49.53 29.21 49.53 29.29 49.45 29.21 49.36 29.12 49.27 29.12 49.27 29.03 49.18 28.94 49.1 28.94 49.01 28.94 48.92 28.94 48.83 28.94 48.75 29.03 48.66 29.03 48.57 28.94 48.57 28.86 48.48 28.86 48.48 28.77 48.48 28.59 48.57 28.59 48.57 28.51 48.48 28.42 48.4 28.33 48.31 28.33 48.22 28.24 48.13 28.24 48.05 28.16 47.96 28.07 47.87 28.07 47.78 27.98 47.78 27.89 47.7 27.81 47.61 27.72 47.52 27.72 47.35 27.72 47.26 27.72 47.26 27.63 47.17 27.63 47.17 27.54 47.08 27.46 47 27.46 46.91 27.37 46.82 27.37 46.65 27.28 46.56 27.28 46.47 27.28 46.3 27.28 46.21 27.28 46.12 27.28 46.12 27.19 46.03 27.19 46.03 27.11 45.95 27.11 45.86 27.11 45.77 27.11 45.68 27.11 45.6 27.11 45.6 27.02 45.6 26.93 45.51 26.84 45.42 26.84 45.33 26.84 45.25 26.93 45.16 26.93 45.16 26.84 45.16 26.76 45.16 26.67 45.16 26.58 45.16 26.49 45.07 26.49 45.07 26.41 45.16 26.41 45.16 26.32 45.16 26.23 45.16 26.14 45.07 26.14 45.07 26.05 45.07 25.96 44.98 25.96 44.9 25.96 44.72 26.05 44.63 26.05 44.46 26.14 44.37 26.14 44.28 26.05 44.28 25.96 44.28 25.88 44.28 25.79 44.2 25.79 44.11 25.79 44.02 25.88 43.93 26.05 43.85 26.05 43.76 26.05 43.76 25.96 43.67 25.88 43.67 25.79 43.59 25.7 43.5 25.7 43.41 25.7 43.32 25.7 43.23 25.79 43.23 25.7 43.15 25.61 43.15 25.53 43.15 25.44 42.97 25.44 42.88 25.35 42.8 25.35 42.71 25.44 42.71 25.53 42.71 25.61 42.71 25.7 42.62 25.79 42.53 25.79 42.45 25.79 42.36 25.79 42.36 25.7 42.27 25.61 42.27 25.53 42.27 25.44 42.27 25.35 42.36 25.26 42.36 25.18 42.36 25.09 42.27 25.09 42.19 25.09 42.01 25.09 41.92 25.09 41.84 25.09 41.75 25.09 41.75 25 41.75 24.91 41.84 24.83 41.84 24.74 41.92 24.74 41.92 24.65 41.92 24.56 41.84 24.56 41.84 24.48 41.75 24.48 41.75 24.39 41.66 24.3 41.66 24.21 41.66 24.13 41.75 24.13 41.84 24.04 41.92 23.95 41.92 23.86 42.01 23.78 42.01 23.69 42.01 23.51 41.92 23.43 41.92 23.34 41.92 23.25 41.92 23.16 41.84 23.08 41.75 23.08 41.75 22.99 41.66 22.9 41.57 22.9 41.48 22.81 41.4 22.73 41.31 22.73 41.22 22.64 41.13 22.55 41.13 22.46 41.13 22.38 41.05 22.29 41.05 22.2 40.97 22.11 40.79 22.02 40.7 21.93 40.62 21.85 40.62 21.76 40.62 21.58 40.62 21.5 40.53 21.5 40.44 21.5 40.35 21.5 40.27 21.67 40.18 21.85 40.09 21.93 40 21.93 39.92 21.93 39.83 21.85 39.83 21.76 39.83 21.67 39.92 21.58 39.92 21.41 39.92 21.32 39.92 21.15 39.92 21.06 39.92 20.97 40 20.97 40.09 20.88 40.18 20.97 40.27 20.97 40.35 20.88 40.35 20.8 40.27 20.71 40.27 20.53 40.18 20.45 40.18 20.36 40.18 20.27 40.27 20.27 40.27 20.18 40.35 20.1 40.53 20.1 40.62 20.01 40.7 20.01 40.7 19.92 40.7 19.84 40.62 19.75 40.53 19.75 40.44 19.66 40.44 19.57 40.53 19.57 40.62 19.48 40.62 19.4 40.62 19.31 40.53 19.22 40.53 19.14 40.53 19.05 40.53 18.96 40.53 18.87 40.44 18.79 40.27 18.7 40.18 18.61 40.18 18.52 40.18 18.43 40.27 18.43 40.35 18.35 40.35 18.26 40.35 18.17 40.27 18.17 40.18 18.17 40.09 18.17 39.92 18.26 39.83 18.35 39.74 18.43 39.65 18.43 39.57 18.35 39.57 18.26 39.57 18.17 39.65 18.17 39.65 18.09 39.83 17.99 39.83 17.91 39.83 17.82 39.74 17.73 39.65 17.73 39.48 17.73 39.39 17.82 39.3 17.82 39.13 17.73 38.95 17.73 38.87 17.64 38.87 17.55 38.95 17.47 38.95 17.38 38.87 17.2 38.78 17.12 38.69 17.12 38.69 17.03 38.52 17.03 38.43 16.94 38.34 16.86 38.25 16.68 38.25 16.59 38.17 16.5 38.25 16.42 38.25 16.33 38.17 16.24 38.08 16.16 37.99 16.24 37.9 16.24 37.82 16.24 37.73 16.24 37.64 16.24 37.55 16.24 37.55 16.16 37.47 16.07 37.47 15.98 37.47 15.89 37.47 15.8 37.47 15.72 37.55 15.63 37.55 15.54 37.64 15.46 37.64 15.37 37.64 15.28 37.55 15.28 37.47 15.28 37.38 15.28 37.29 15.19 37.2 15.19 37.2 15.02 37.2 14.93 37.2 14.84 37.2 14.76 37.2 14.67 37.12 14.58 37.03 14.58 36.94 14.58 36.85 14.58 36.85 14.67 36.77 14.67 36.68 14.67 36.59 14.67 36.59 14.76 36.5 14.84 36.42 14.84 36.33 14.76 36.24 14.76 36.16 14.76 36.16 14.67 36.07 14.58 35.98 14.58 35.98 14.49 35.98 14.41 35.89 14.41 35.89 14.32 35.8 14.32 35.72 14.32 35.63 14.32 35.54 14.32 35.54 14.23 35.45 14.23 35.45 14.14 35.45 14.06 35.45 13.96 35.45 13.88 35.45 13.79 35.45 13.7 35.37 13.7 35.37 13.61 35.28 13.61 35.19 13.7 35.1 13.7 35.02 13.7 34.93 13.7 34.84 13.7 34.76 13.7 34.76 13.61 34.84 13.53 34.76 13.53 34.76 13.44 34.67 13.44 34.58 13.44 34.49 13.53 34.49 13.61 34.41 13.61 34.32 13.61 34.32 13.53 34.32 13.44 34.32 13.26 34.23 13.18 34.23 13.09 34.14 13 34.05 13 33.97 13 33.88 13 33.79 13 33.7 13 33.7 13.09 33.62 13.09 33.62 13 33.62 12.91 33.7 12.91 33.7 12.83 33.7 12.74 33.62 12.74 33.53 12.65 33.53 12.56 33.53 12.48 33.44 12.48 33.44 12.39 33.35 12.39 33.27 12.3 33.18 12.21 33.27 12.13 33.27 12.04 33.27 11.95 33.18 11.86 33.27 11.86 33.35 11.78 33.35 11.69 33.44 11.69 33.53 11.6 33.53 11.51 33.53 11.43 33.53 11.34 33.44 11.34 33.44 11.25 33.44 11.16 33.44 11.08 33.44 10.99 33.53 10.9 33.62 10.81 33.62 10.73 33.7 10.73 33.79 10.64 33.79 10.55 33.88 10.55 33.88 10.46 33.88 10.38 33.79 10.29 33.7 10.29 33.62 10.29 33.53 10.29 33.53 10.2 33.53 10.11 33.62 10.03 33.53 9.93 33.44 9.93 33.35 9.93 33.27 10.03 33.27 10.11 33.18 10.11 33.09 10.2 33.01 10.11 33.01 10.03 33.01 9.93 33.09 9.93 33.09 9.85 33.09 9.76 33.18 9.76 33.18 9.67 33.18 9.58 33.09 9.58 33.01 9.58 33.01 9.67 32.92 9.58 32.83 9.58 32.74 9.58 32.74 9.5 32.74 9.41 32.83 9.41 32.92 9.41 32.92 9.32 32.83 9.32 32.74 9.32 32.66 9.32 32.66 9.41 32.66 9.5 32.57 9.5 32.48 9.41 32.48 9.32 32.48 9.23 32.57 9.15 32.57 9.06 32.48 9.06 32.48 8.97 32.39 8.97 32.31 9.06 32.31 9.15 32.22 9.15 32.22 9.23 32.13 9.23 32.04 9.15 32.04 9.06 31.96 9.06 31.96 9.15 31.87 9.15 31.87 9.23 31.96 9.23 31.96 9.32 32.04 9.32 32.04 9.41 31.96 9.41 31.87 9.32 31.78 9.23 31.69 9.23 31.61 9.23 31.61 9.15 31.61 9.06 31.52 9.06 31.52 8.97 31.52 8.88 31.43 8.8 31.34 8.8 31.34 8.71 31.26 8.71 31.26 8.8 31.17 8.8 31.17 8.88 31.08 8.88 30.99 8.88 30.99 8.97 30.91 8.97 30.91 9.06 30.82 9.06 30.73 9.06 30.64 9.06 30.56 9.06 30.47 9.06 30.38 9.06 30.29 9.06 30.21 9.15 30.12 9.23 30.03 9.23 29.94 9.23 29.86 9.23 29.77 9.23 29.68 9.23 29.59 9.15 29.51 9.06 29.51 8.97 29.51 8.88 29.42 8.8 29.33 8.8 29.24 8.8 29.16 8.8 29.16 8.71 29.07 8.71 28.98 8.71 28.89 8.8 28.81 8.8 28.72 8.88 28.72 8.97 28.63 8.97 28.54 8.97 28.54 8.88 28.54 8.8 28.46 8.8 28.37 8.71 28.28 8.71 28.37 8.62 28.37 8.53 28.37 8.45 28.28 8.45 28.28 8.53 28.19 8.53 28.11 8.45 28.02 8.36 27.93 8.36 27.93 8.27 27.84 8.27 27.76 8.27 27.76 8.36 27.67 8.45 27.58 8.45 27.49 8.45 27.41 8.36 27.32 8.27 27.23 8.27 27.23 8.18 27.23 8.1 27.14 8.1 27.06 8.01 26.98 8.01 26.98 7.92 26.89 7.92 26.89 7.83 26.89 7.75 26.8 7.75 26.8 7.66 26.89 7.66 26.89 7.57 26.98 7.57 27.06 7.57 27.06 7.48 27.06 7.4 27.06 7.31 27.06 7.22 26.98 7.13 26.98 7.05 26.98 6.96 26.98 6.87 26.98 6.78 26.89 6.78 26.89 6.7 26.8 6.61 26.71 6.61 26.71 6.52 26.63 6.52 26.54 6.43 26.45 6.43 26.36 6.43 26.36 6.35 26.27 6.35 26.27 6.26 26.27 6.17 26.27 6.08 26.27 6 26.36 6 26.36 5.9 26.45 5.82 26.54 5.82 26.63 5.82 26.63 5.73 26.71 5.64 26.71 5.55 26.8 5.47 26.8 5.38 26.8 5.29 26.8 5.2 26.8 5.12 26.71 5.12 26.8 5.03 26.8 4.94 26.89 4.94 26.89 4.85 26.89 4.77 26.98 4.77 26.98 4.68 26.98 4.59 26.98 4.5 26.89 4.42 26.89 4.33 26.8 4.33 26.8 4.24 26.71 4.15 26.71 4.24 26.63 4.24 26.54 4.24 26.45 4.33 26.36 4.33 26.36 4.42 26.27 4.42 26.27 4.33 26.27 4.24 26.27 4.15 26.19 4.15 26.1 4.07 26.1 3.98 26.01 3.89 25.93 3.81 25.84 3.81 25.75 3.81 25.75 3.72 25.75 3.63 25.66 3.63 25.66 3.54 25.57 3.54 25.49 3.54 25.4 3.54 25.31 3.46 25.23 3.46 25.14 3.37 25.05 3.37 24.96 3.46 24.88 3.54 24.79 3.54 24.7 3.46 24.61 3.37 24.53 3.37 24.53 3.28 24.53 3.19 24.53 3.1 24.44 3.02 24.44 2.93 24.44 2.84 24.35 2.84 24.35 2.75 24.35 2.67 24.26 2.58 24.18 2.58 24.18 2.49 24.09 2.49 24 2.49 24 2.49 24 2.4 23.91 2.4 23.83 2.4 23.74 2.4 23.65 2.32 23.65 2.23 23.56 2.23 23.56 2.14 23.48 2.06 23.39 1.96 23.39 1.88 23.3 1.88 23.21 1.88 23.13 1.88 23.04 1.96 22.95 1.96 22.86 1.96 22.78 1.88 22.69 1.88 22.69 1.79 22.6 1.7 22.51 1.7 22.43 1.7 22.34 1.7 22.25 1.7 22.16 1.61 22.08 1.61 21.99 1.61 21.9 1.61 21.81 1.61 21.73 1.61 21.64 1.7 21.55 1.7 21.55 1.61 21.46 1.61 21.46 1.52 21.46 1.44 21.46 1.35 21.46 1.26 21.46 1.18 21.38 1.09 21.29 1.09 21.29 1 21.29 0.91 21.29 0.82 21.29 0.74 21.2 0.65 21.2 0.56 21.2 0.47 21.29 0.47 21.29 0.39 21.2 0.3 15.95 0.3 11.15 0.21 8.96 0.21 6.42 0.13 6.07 0.13 5.46 0.13 2.84 0.13 1.61 0.13 1.52 0.13 1.44 0.21 1.35 0.21 1.18 0.21 1 0.3 0.91 0.39 0.74 0.56 0.74 0.65 0.74 0.82 0.74 1.09 0.82 1.26 1 1.35 1.09 1.35 1.18 1.44 1.26 1.52 1.35 1.61 1.35 1.7 1.35 1.79 1.26 1.88 1.09 2.06 1.09 2.14 1 2.23 1.09 2.4 1.18 2.49 1.18 2.49 1.26 2.67 1.35 2.84 1.35 2.93 1.35 3.1 1.26 3.28 1.26 3.37 1.18 3.54 1.09 3.63 1 3.63 0.91 3.72 0.74 3.72 0.56 3.72 0.47 3.81 0.39 3.89 0.39 3.98 0.39 4.15 0.47 4.24 0.56 4.33 0.65 4.42 0.82 4.42 0.91 4.5 0.91 4.68 0.91 4.77 0.91 4.94 0.82 5.03 0.65 5.12 0.56 5.2 0.39 5.38 0.39 5.47 0.3 5.64 0.3 5.73 0.3 5.9 0.39 6 0.39 6.08 0.39 6.17 0.47 6.26 0.56 6.35 0.65 6.35 0.82 6.35 0.91 6.43 1.09 6.52 1.18 6.61 1.18 6.78 1.18 6.87 1.09 7.05 1 7.22 0.91 7.31 0.82 7.4 0.65 7.48 0.39 7.66 0.3 7.75 0.13 7.83 0.13 7.92 0.13 8.01 0.13 8.1 0.13 8.36 0.21 8.62 0.3 8.8 0.3 8.97 0.3 9.06 0.3 9.23 0.3 9.32 0.39 9.32 0.39 9.41 0.39 9.5 0.39 9.58 0.47 9.58 0.47 9.67 0.47 9.76 0.56 9.76 0.47 9.85 0.56 9.93 0.65 10.11 0.65 10.2 0.74 10.29 0.74 10.38 0.82 10.46 0.91 10.55 1.09 10.64 1.18 10.73 1.18 10.81 1.26 10.99 1.26 11.08 1.26 11.16 1.18 11.25 1.18 11.34 1.18 11.43 1.26 11.6 1.26 11.69 1.35 11.78 1.44 11.86 1.52 11.86 1.61 11.86 1.79 11.86 1.88 11.78 2.05 11.69 2.05 11.6 2.14 11.6 2.22 11.6 2.4 11.6 2.49 11.69 2.57 11.78 2.66 11.86 2.66 12.04 2.75 12.13 2.84 12.3 2.92 12.39 3.01 12.48 3.1 12.56 3.19 12.65 3.36 12.65 3.45 12.65 3.54 12.56 3.71 12.56 3.89 12.56 4.06 12.48 4.15 12.48 4.24 12.39 4.32 12.3 4.41 12.3 4.5 12.3 4.59 12.3 4.67 12.39 4.76 12.48 4.85 12.56 4.94 12.65 5.02 12.74 5.11 12.91 5.2 12.91 5.29 13 5.37 13.09 5.46 13.09 5.64 13.26 5.72 13.35 5.81 13.44 5.81 13.53 5.81 13.61 5.81 13.7 5.72 13.79 5.72 13.88 5.64 13.96 5.64 14.06 5.64 14.23 5.64 14.32 5.72 14.41 5.81 14.49 5.9 14.58 5.99 14.67 6.16 14.67 6.34 14.76 6.51 14.84 6.69 14.84 6.77 14.93 6.95 15.02 7.04 15.02 7.21 15.02 7.39 15.02 7.47 15.02 7.65 14.93 7.74 14.84 7.74 14.76 7.82 14.67 7.82 14.49 7.91 14.41 8 14.32 8.17 14.32 8.26 14.32 8.35 14.41 8.44 14.41 8.52 14.32 8.61 14.32 8.7 14.23 8.79 14.06 8.87 13.88 8.87 13.79 8.87 13.7 8.96 13.61 9.05 13.44 9.22 13.35 9.48 13.35 9.66 13.26 9.84 13.26 9.92 13.26 10.01 13.18 10.1 13.18 10.1 13.09 10.19 13.09 10.36 13 10.45 12.91 10.54 12.91 10.62 12.83 10.8 12.91 10.88 12.91 10.97 13 11.06 13.09 11.06 13.18 11.15 13.35 11.15 13.53 11.23 13.7 11.32 13.96 11.41 14.14 11.41 14.41 11.5 14.58 11.58 14.84 11.58 14.93 11.58 15.02 11.58 15.11 11.58 15.28 11.58 15.37 11.58 15.46 11.67 15.54 11.76 15.63 11.93 15.63 12.02 15.63 12.11 15.63 12.2 15.63 12.28 15.54 12.46 15.46 12.55 15.37 12.72 15.37 12.81 15.46 12.9 15.54 12.98 15.72 12.98 15.8 12.98 15.98 12.9 16.07 12.81 16.07 12.72 16.16 12.63 16.24 12.63 16.33 12.55 16.33 12.55 16.5 12.55 16.59 12.63 16.68 12.72 16.68 12.72 16.77 12.81 16.77 12.9 16.77 12.98 16.68 13.16 16.59 13.24 16.59 13.33 16.59 13.42 16.5 13.59 16.42 13.68 16.33 13.77 16.33 13.85 16.33 13.94 16.33 14.03 16.42 14.12 16.5 14.12 16.59 14.03 16.68 13.94 16.77 13.85 16.86 13.77 16.94 13.59 17.03 13.5 17.12 13.42 17.2 13.33 17.29 13.33 17.38 13.42 17.55 13.5 17.64 13.59 17.73 13.68 17.82 13.77 17.82 13.94 17.82 14.12 17.82 14.12 17.73 14.29 17.64 14.47 17.55 14.55 17.47 14.64 17.38 14.82 17.38 14.9 17.38 14.99 17.38 15.08 17.47 15.08 17.64 15.17 17.82 15.25 17.99 15.25 18.09 15.43 18.09 15.52 18.17 15.52 18.09 15.69 18.09 15.69 17.99 15.78 17.82 15.87 17.73 15.95 17.55 16.04 17.38 16.04 17.29 16.04 17.12 16.13 17.03 16.3 17.03 16.48 16.94 16.65 17.03 16.74 17.03 16.91 17.12 17 17.2 17 17.29 17 17.38 17 17.55 16.91 17.64 16.91 17.82 16.83 17.91 16.74 18.09 16.65 18.26 16.57 18.43 16.48 18.61 16.48 18.79 16.48 19.05 16.48 19.14 16.57 19.31 16.57 19.4 16.65 19.48 16.74 19.48 16.83 19.48 16.91 19.4 17.09 19.31 17.18 19.22 17.27 19.14 17.44 19.14 17.61 19.05 17.7 19.05 17.88 19.14 17.96 19.14 18.05 19.22 18.14 19.31 18.05 19.4 18.05 19.48 17.96 19.57 17.96 19.66 17.88 19.75 17.88 19.84 17.79 19.92 17.79 20.01 17.79 20.1 17.79 20.27 17.79 20.36 17.88 20.45 17.88 20.62 17.96 20.71 17.96 20.88 18.05 21.06 18.05 21.15 18.05 21.23 17.96 21.32 17.88 21.41 17.79 21.5 17.7 21.5 17.53 21.5 17.53 21.41 17.44 21.41 17.35 21.32 17.27 21.23 17.27 21.15 17.18 21.06 17.09 20.97 17 21.06 16.91 21.06 16.91 21.15 16.91 21.23 17 21.32 17 21.41 17.09 21.5 17.09 21.67 17.18 21.76 17.18 21.85 17.18 21.93 17.18 22.02 17.18 22.11 17.18 22.2 17.18 22.29 17.09 22.38 17.09 22.46 17.09 22.55 17 22.64 17 22.73 17 22.81 17.09 22.81 17.09 22.9 17.18 22.9 17.27 22.9 17.44 22.81 17.53 22.81 17.7 22.73 17.79 22.73 17.96 22.73 18.05 22.73 18.14 22.73 18.32 22.73 18.4 22.73 18.49 22.81 18.58 22.9 18.58 22.99 18.58 23.08 18.58 23.16 18.49 23.25 18.4 23.34 18.32 23.43 18.23 23.6 18.23 23.69 18.23 23.78 18.23 23.86 18.23 23.95 18.23 24.04 18.23 24.13 18.23 24.21 18.32 24.3 18.32 24.39 18.49 24.48 18.58 24.48 18.66 24.48 18.84 24.39 18.93 24.39 19.02 24.3 19.1 24.21 19.1 24.13 19.19 24.04 19.28 23.95 19.28 23.78 19.36 23.69 19.45 23.6 19.54 23.43 19.63 23.43 19.71 23.34 19.8 23.34 19.8 23.25 19.89 23.25 19.98 23.25 20.06 23.34 20.15 23.34 20.24 23.43 20.33 23.43 20.33 23.51 20.15 23.6 20.15 23.69 20.15 23.78 20.15 23.86 20.15 23.95 20.24 24.04 20.24 24.13 20.33 24.3 20.33 24.48 20.41 24.56 20.5 24.65 20.68 24.74 20.76 24.74 20.94 24.74 21.03 24.74 21.11 24.65 21.2 24.65 21.2 24.56 21.29 24.48 21.29 24.39 21.38 24.21 21.38 24.13 21.46 23.95 21.55 23.95 21.64 23.95 21.73 23.95 21.81 23.95 21.81 24.04 21.9 24.13 21.99 24.21 22.08 24.39 22.16 24.48 22.25 24.56 22.34 24.65 22.43 24.74 22.51 24.74 22.6 24.74 22.69 24.74 22.86 24.74 22.86 24.65 22.95 24.56 23.04 24.48 23.04 24.3 23.13 24.13 23.21 23.95 23.3 23.86 23.3 23.78 23.39 23.69 23.48 23.6 23.56 23.69 23.65 23.78 23.65 23.86 23.65 23.95 23.65 24.04 23.74 24.13 23.83 24.3 23.91 24.3 24 24.3 24.09 24.3 24.18 24.3 24.35 24.3 24.44 24.3 24.61 24.3 24.7 24.39 24.7 24.48 24.79 24.56 24.88 24.74 24.88 24.83 24.96 24.91 25.05 25.09 25.14 25.18 25.23 25.18 25.4 25.18 25.49 25.18 25.57 25.18 25.66 25.18 25.84 25.09 25.93 25.09 26.1 25.09 26.19 25.09 26.27 25.09 26.36 25.09 26.36 25.18 26.45 25.26 26.45 25.35 26.45 25.44 26.54 25.53 26.63 25.7 26.8 25.79 26.98 25.88 27.06 25.88 27.14 25.88 27.41 25.88 27.58 25.88 27.84 25.96 28.11 25.96 28.28 26.05 28.46 26.14 28.63 26.23 28.81 26.23 29.16 26.41 29.33 26.41 29.42 26.49 29.68 26.49 29.77 26.49 30.03 26.49 30.29 26.49 30.64 26.49 30.99 26.58 31.52 26.67 31.87 26.76 32.04 26.76 32.31 26.84 32.48 27.02 32.66 27.28 32.83 27.63 32.92 27.98 33.01 28.16 33.18 28.33 33.35 28.51 33.44 28.59 33.62 28.77 33.7 28.94 33.79 29.12 33.79 29.38 33.88 29.47 33.88 29.64 33.97 29.73 34.14 29.82 34.32 29.82 34.49 29.82 34.67 29.91 34.76 29.91 34.84 29.99 34.93 30.17 34.93 30.35 34.93 30.44 34.84 30.44 34.76 30.52 34.67 30.61 34.58 30.79 34.49 30.87 34.49 30.96 34.41 31.05 34.41 31.22 34.41 31.4 34.49 31.57 34.49 31.66 34.58 31.75 34.58 31.92 34.67 32.1 34.67 32.27 34.67 32.36 34.58 32.53 34.58 32.62 34.49 32.71 34.49 32.88 34.49 33.06 34.58 33.23 34.67 33.41 34.76 33.5 34.84 33.59 35.02 33.67 35.19 33.67 35.37 33.67 35.45 33.67 35.63 33.59 35.89 33.5 36.07 33.41 36.24 33.41 36.5 33.41 36.68 33.41 36.85 33.5 36.85 33.67 36.85 33.76 36.85 33.85 36.77 34.02 36.77 34.12 36.68 34.2 36.68 34.38 36.59 34.55 36.59 34.73 36.5 34.81 36.5 34.9 36.5 35.08 36.5 35.25 36.59 35.52 36.77 35.69 36.85 35.87 36.94 35.95 37.12 35.95 37.29 36.04 37.55 36.04 37.73 36.04 37.82 35.95 37.99 35.95 38.17 35.95 38.25 36.13 38.34 36.3 38.34 36.39 38.34 36.48 38.34 36.56 38.52 36.74 38.6 36.91 38.6 37.09 38.69 37.26 38.69 37.44 38.69 37.61 38.69 37.88 38.6 38.05 38.69 38.23 38.87 38.41 39.13 38.67 39.3 38.84 39.48 39.02 39.65 39.19 39.83 39.37 40.18 39.54 40.44 39.63 40.62 39.72 40.7 39.72 40.88 39.81 40.97 39.89 40.97 39.98 40.97 40.07 40.97 40.24 40.97 40.33 40.97 40.42 40.97 40.51 41.05 40.59 41.13 40.77 41.31 40.86 41.48 40.86 41.66 40.86 41.75 40.86 41.84 40.77 42.01 40.59 42.1 40.51 42.27 40.33 42.45 40.07 42.62 39.98 42.8 39.89 42.88 39.89 43.06 39.89 43.23 39.98 43.41 40.07 43.41 40.16 43.59 40.33 43.76 40.42 43.93 40.51 44.2 40.59 44.37 40.68 44.63 40.59 44.81 40.59 44.98 40.51 45.16 40.51 45.33 40.59 45.51 40.68 45.6 40.77 45.68 40.86 45.86 40.94 46.12 41.03 46.3 41.12 46.56 41.12 46.82 41.21 47 41.29 47 41.38 47 41.56 47 41.64 47 41.73 47 41.91 47 42.17 47.17 42.26 47.35 42.35 47.52 42.35 47.7 42.35 47.78 42.35 47.96 42.44 48.13 42.52 48.22 42.61 48.31 42.7 48.4 42.87 48.48 43.05 48.4 43.22 48.31 43.4 48.13 43.4 47.96 43.49 47.87 43.66 47.78 43.84 47.78 43.92 47.7 43.92 47.7 44.19 47.7 44.27 47.7 44.54 47.87 44.71 47.96 44.8 48.13 44.89 48.31 44.89 48.57 44.71 48.83 44.62 49.1 44.54 49.36 44.45 49.53 44.45 49.8 44.45 49.97 44.54 50.23 44.54 50.32 44.71 50.41 44.89 50.41 45.06 50.32 45.24 50.23 45.41 50.06 45.5 49.8 45.67 49.62 45.76 49.45 45.94 49.36 46.02 49.18 46.11 49.1 46.29 49.1 46.38 49.1 46.55 49.18 46.73 49.18 46.82 49.18 46.9 49.36 47.08 49.53 47.08 49.62 47.08 49.88 47.08 50.23 47.17 50.49 47.08 50.76 47.08 50.93 46.99 51.2 47.08 51.28 47.25 51.37 47.34 51.37 47.52 51.37 47.69 51.37 47.78 51.28 48.04 51.28 48.13 51.11 48.3 51.02 48.48 50.93 48.65 50.93 48.83 50.93 49 51.11 49.27 51.28 49.44 51.46 49.53 51.55 49.62 51.63 49.62 51.9 49.62 52.07 49.53 52.16 49.44 52.33 49.35 52.51 49.27 52.68 49.18 52.95 49.18 53.21 49.35 53.29 49.53 53.38 49.7 53.38 49.97 53.29 50.05 53.12 50.15 52.86 50.23 52.77 50.32 52.68 50.41 52.59 50.58 52.51 50.76 52.42 50.93 52.42 51.02 52.42 51.2 52.42 51.37 52.51 51.63 52.68 51.9 52.86 52.07 52.95 52.07 53.03 52.24 53.29 52.33 53.38 52.42 53.56 52.59 53.64 52.77 53.64 52.95 53.82 53.29 53.99 53.64 54.17 54.08 54.26 54.17 54.43 54.44 54.52 54.52 54.61 54.61 54.78 54.7 54.96 54.88 55.04 54.96 55.13 55.14 55.3 55.4 55.56 55.75 55.65 56.01 55.83 56.19 55.83 56.36 56.09 56.62 56.26 56.89 56.35 57.06 56.53 57.15 56.79 57.24 57.05 57.24 57.23 57.15 57.4 57.06 57.58 56.89 57.75 56.71 57.84 56.45 57.84 56.27 57.84 56.19 57.84 55.92 58.01 55.75 58.19 55.66 58.27 55.66 58.45 55.66 58.63 55.75 58.71 55.84 58.8 56.01 58.8 56.1 58.8 56.36 58.71 56.54 58.71 56.71 58.8 56.89 58.89 57.15 58.98 57.32 59.15 57.5 59.24 57.67 59.33 57.67 59.5 57.76 59.76 57.85 59.94 57.94 60.11 57.94 60.2 57.94 60.2 57.85 60.38 57.76 60.38 57.59 60.46 57.41 60.55 57.24 60.55 57.15 60.55 56.97 60.55 56.89 60.64 56.71 60.73 56.71 60.9 56.71 61.07 56.8 61.25 56.89 61.42 56.97 61.51 57.15 61.77 57.24 61.86 57.32 62.04 57.32 62.3 57.32 62.39 57.24 62.47 57.06 62.47 56.97 62.47 56.8 62.47 56.62 62.47 56.45 62.39 56.36 62.3 56.27 62.3 56.19 62.21 56.1 62.21 56.01 62.12 55.92 62.12 55.84 62.21 55.66 62.3 55.57 62.39 55.49 62.47 55.49 62.65 55.57 62.74 55.66 62.82 55.75 63 55.84 63.09 55.92 63.17 56.01 63.17 56.1 63.17 56.19 63.17 56.27 63.17 56.36 63.17 56.54 63.17 56.62 63.26 56.8 63.35 56.89 63.44 56.97 63.61 57.06 63.7 57.06 63.87 56.97 63.87 56.89 63.96 56.8 63.96 56.71 64.05 56.62 64.14 56.54 64.14 56.45 64.22 56.36 64.31 56.27 64.4 56.19 64.49 56.19 64.57 56.1 64.66 56.01 64.75 56.01 64.84 55.92 64.84 55.84 64.84 55.75 64.84 55.66 64.84 55.57 64.84 55.49 64.75 55.31 64.66 55.22 64.66 55.05 64.66 54.88 64.57 54.79 64.66 54.7 64.66 54.61 64.75 54.52 64.84 54.44 64.92 54.26 65.01 54.17 65.1 54.08 65.36 54.08 65.45 54.17 65.62 54.17 65.8 54.26 66.06 54.35 66.32 54.44 66.59 54.52 66.76 54.52 66.85 54.52 66.94 54.44 67.11 54.35 67.2 54.26 67.28 54.17 67.28 54.08 67.2 53.91 67.2 53.73 67.11 53.64 67.11 53.56 67.11 53.47 67.11 53.38 67.11 53.29 67.2 53.29 67.28 53.29 67.46 53.29 67.55 53.47 67.64 53.64 67.72 53.82 67.72 53.91 67.72 53.99 67.72 54.08 67.64 54.17 67.64 54.26 67.64 54.35 67.72 54.52 67.81 54.61 67.98 54.79 68.16 54.88 68.33 54.96 68.51 55.14 68.51 55.31 68.6 55.49 68.51 55.66 68.51 55.84 68.51 56.01 68.42 56.19 68.33 56.27 68.25 56.36 68.25 56.45 68.16 56.45 68.16 56.54 68.25 56.62 68.25 56.71 68.33 56.89 68.42 56.97 68.42 57.15 68.42 57.32 68.42 57.41 68.42 57.59 68.42 57.67 68.33 57.85 68.33 58.02 68.42 58.11 68.42 58.29 68.51 58.38 68.6 58.47 68.69 58.47 68.86 58.55 68.94 58.64 69.12 58.64 69.2 58.73 69.29 58.73 69.38 58.73 69.38 58.82 69.38 58.99 69.38 59.08 69.38 59.25 69.29 59.34 69.29 59.52 69.2 59.52 69.2 59.6 69.2 59.69 69.2 59.78 69.29 59.87 69.38 59.95 69.47 60.13 69.47 60.3 69.47 60.48 69.47 60.57 69.38 60.74 69.38 60.83 69.29 61.09 69.2 61.35 69.03 61.53 68.86 61.7 68.69 61.88 68.6 62.05 68.51 62.23 68.42 62.32 68.33 62.5 68.33 62.58 68.33 62.67 68.33 62.76 68.42 62.85 68.51 63.02 68.6 63.2 68.69 63.2 68.69 63.37 68.77 63.46 68.77 63.55 68.77 63.72 68.77 63.9 68.86 64.16 68.86 64.33 68.86 64.42 68.86 64.59 68.86 64.68 68.86 64.86 68.86 64.94 68.86 65.03 68.86 65.12 68.86 65.21 68.86 65.3 68.94 65.3 69.03 65.38 69.2 65.38 69.29 65.47 69.38 65.47 69.47 65.47 69.55 65.56 69.64 65.64 69.64 65.73 69.73 65.73 69.73 65.82 69.73 65.91 69.73 66 69.64 66 69.55 66.08 69.55 66.17 69.38 66.35 69.03 66.7 68.94 66.88 68.86 67.14 68.77 67.22 68.69 67.4 68.6 67.49 68.6 67.58 68.6 67.66 68.6 67.75 68.6 67.84 68.6 67.92 68.69 68.01 68.6 68.19 68.6 68.28 68.6 68.36 68.69 68.36 68.69 68.45 68.77 68.54 68.94 68.54 69.03 68.63 69.2 68.63 69.38 68.71 69.55 68.71 69.73 68.8 70.08 68.8 70.43 68.89 70.69 68.89 70.87 68.89 71.13 68.89 71.3 68.97 71.48 68.97 71.57 68.97 71.74 68.89 71.83 68.89 71.83 68.8 71.92 68.71 72 68.63 72.09 68.54 72.18 68.36 72.18 68.19 72.27 68.01 72.27 67.92 72.27 67.84 72.35 67.75 72.35 67.66 72.44 67.66 72.53 67.66 72.62 67.58 72.7 67.58 72.79 67.49 72.88 67.49 72.97 67.4 73.05 67.4 73.14 67.4 73.23 67.31 73.23 67.22 73.23 67.14 73.23 67.05 73.23 66.96 73.32 66.88 73.4 66.79 73.49 66.7 73.58 66.61 73.75 66.61 73.84 66.53 73.93 66.44 74.02 66.44 74.02 66.35 74.1 66.35 74.19 66.35 74.28 66.44 74.36 66.44 74.45 66.44 74.54 66.44 74.63 66.35 74.72 66.26 74.8 66.17 74.72 66.08 74.72 66 74.8 65.91 74.8 65.82 74.8 65.73 74.89 65.73 74.89 65.64 74.89 65.56 74.89 65.47 74.98 65.38 74.98 65.3 75.06 65.21 75.06 65.12 75.15 65.12 75.24 65.03 75.33 65.03 75.42 64.94 75.5 64.86 75.59 64.86 75.68 64.86 75.77 64.94 75.94 64.94 75.94 65.03 75.94 65.12 75.85 65.12 75.85 65.21 75.85 65.3 75.77 65.38 75.77 65.56 75.77 65.73 75.68 65.82 75.68 65.91 75.68 66 75.77 66 75.85 66 75.94 66 76.11 66.08 76.2 66 76.47 66 76.55 65.91 76.64 65.91 76.73 66 76.9 66 76.99 66.08 77.08 66.08 77.17 66.08 77.17 66.17 77.25 66.17 77.34 66.17 77.43 66.17 77.52 66.17 77.6 66.26 77.69 66.26 77.86 66.35 77.95 66.35 78.21 66.26 78.39 66.26 78.48 66.26 78.56 66.26 78.65 66.35 78.83 66.44 78.91 66.53 79 66.53 79.09 66.61 79.09 66.7 79.18 66.79 79.18 66.88 79.09 66.88 79 66.88 78.91 66.88 78.83 66.96 78.83 67.05 78.83 67.14 78.83 67.31 78.83 67.4 78.83 67.49 78.74 67.58 78.74 67.66 78.65 67.66 78.56 67.75 78.48 67.84 78.39 67.92 78.3 68.01 78.3 68.19 78.21 68.28 78.21 68.36 78.21 68.45 78.21 68.54 78.3 68.63 78.39 68.71 78.48 68.8 78.56 68.8 78.74 68.89 78.83 68.97 78.91 68.97 79 69.06 79.09 69.15 79.18 69.24 79.26 69.24 79.35 69.33 79.44 69.33 79.53 69.33 79.53 69.24 79.61 69.15 79.7 69.15 79.79 69.15 79.88 69.15 79.96 69.24 80.05 69.33 80.05 69.41 80.05 69.5 79.96 69.59 79.88 69.67 79.79 69.67 79.79 69.76 79.7 69.85 79.7 69.94 79.7 70.02 79.79 70.11 79.79 70.2 79.88 70.29 79.88 70.38 79.96 70.47 79.96 70.56 79.96 70.64 79.96 70.73 79.88 70.82 79.88 70.91 79.88 70.99 79.79 71.08 79.79 71.17 79.79 71.25 79.88 71.25 79.96 71.34 80.05 71.43 80.14 71.43 80.14 71.52 80.14 71.6 80.05 71.6 80.05 71.69 79.96 71.69 79.96 71.78 79.96 71.87 79.96 71.95 79.96 72.04 80.05 72.13 80.14 72.22 80.23 72.22 80.23 72.3 80.31 72.39 80.31 72.48 80.31 72.57 80.4 72.57 80.49 72.65 80.58 72.74 80.66 72.74 80.66 72.83 80.58 72.92 80.49 73.09 80.49 73.18 80.58 73.27 80.58 73.35 80.66 73.44 80.66 73.53 80.66 73.62 80.58 73.62 80.49 73.7 80.49 73.79 80.49 73.88 80.58 73.88 80.58 73.97 80.58 74.05 80.66 74.14 80.66 74.41 80.75 74.5 80.66 74.58 80.66 74.67 80.66 74.76 80.75 74.76 80.84 74.85 80.84 74.93 80.93 74.93 81.01 75.02 81.01 75.11 81.1 75.2 81.19 75.28 81.28 75.37 81.36 75.37 81.45 75.37 81.54 75.46 81.63 75.46 81.63 75.55 81.71 75.63 81.71 75.72 81.8 75.81 81.8 75.9 81.89 75.9 81.98 75.98 82.06 76.07 82.15 76.07 82.24 76.07 82.33 76.07 82.41 76.16 82.41 76.25 82.41 76.33 82.41 76.42 82.41 76.51 82.41 76.6 82.41 76.68 82.5 76.77 82.59 76.86 82.59 76.95 82.68 77.03 82.68 77.12 82.76 77.12 82.85 77.12 82.85 77.21 82.93 77.21 83.02 77.21 83.11 77.3 83.19 77.3 83.28 77.3 83.37 77.3 83.37 77.38 83.46 77.38 83.55 77.38 83.55 77.47 83.63 77.47 83.63 77.56 83.63 77.65 83.63 77.73 83.63 77.82 83.63 77.91 83.63 78 83.63 78.08 83.63 78.17 83.63 78.26 83.63 78.35 83.72 78.35 83.72 78.44 83.81 78.44 83.89 78.53 83.98 78.53 83.98 78.61 84.07 78.61 84.07 78.7 84.16 78.79 84.16 78.88 84.16 78.96 84.16 79.05 84.16 79.14 84.16 79.23 84.25 79.31 84.25 79.4 84.25 79.49 84.33 79.49 84.33 79.58 84.33 79.66 84.33 79.75 84.33 79.84 84.25 79.93 84.25 80.01 84.25 80.1 84.25 80.19 84.25 80.28 84.16 80.28 84.16 80.36 84.16 80.45 84.25 80.54 84.25 80.63 84.33 80.63 84.33 80.71 84.42 80.71 84.51 80.8 84.51 80.89 84.51 80.97 84.51 81.06 84.51 81.15 84.42 81.24 84.42 81.33 84.42 81.41 84.51 81.5 84.51 81.59 84.51 81.67 84.59 81.67 84.59 81.76 84.68 81.85 84.68 81.94 84.68 82.03 84.68 82.11 84.68 82.2 84.68 82.29 84.68 82.38 84.59 82.38 84.59 82.47 84.59 82.56 84.51 82.56 84.51 82.64 84.51 82.73 84.51 82.82 84.51 82.91 84.59 82.91 84.59 82.99 84.59 83.08 84.59 83.17 84.68 83.17 84.68 83.25 84.68 83.34 84.68 83.43 84.59 83.52 84.59 83.61 84.51 83.69 84.51 83.78 84.51 83.87 84.51 83.95 84.51 84.04 84.51 84.13 84.51 84.22 84.51 84.31 84.59 84.39 84.59 84.48 84.59 84.57 84.68 84.66 84.68 84.74 84.68 84.83 84.77 84.92 84.77 85 84.86 85.09 84.86 85.18 84.94 85.18 84.94 85.27 85.03 85.36 85.12 85.36 85.21 85.36 85.3 85.36 85.3 85.27 85.38 85.18 85.38 85.09 85.38 85 85.47 84.92 85.47 84.83 85.56 84.83 85.64 84.83 85.73 84.83 85.82 84.83 85.91 84.83 85.99 84.92 86.08 84.92 86.17 84.92 86.17 85 86.26 85 86.34 85.09 86.43 85.09 86.43 85.18 86.52 85.18 86.52 85.27 86.61 85.36 86.61 85.44 86.69 85.53 86.78 85.53 86.78 85.62 86.87 85.62 86.96 85.62 86.96 85.7 87.04 85.7 87.04 85.79 87.04 85.88 87.04 85.97 87.04 86.06 87.13 86.06 87.13 86.14 87.22 86.14 87.31 86.14 87.39 86.14 87.39 86.06 87.48 86.06 87.57 85.97 87.66 85.97 87.66 86.06 87.74 86.06 87.74 86.14 87.66 86.23 87.66 86.32 87.66 86.41 87.66 86.5 87.66 86.58 87.74 86.67 87.74 86.76 87.83 86.76 87.92 86.85 88.01 86.85 88.01 86.94 88.09 86.94 88.18 87.02 88.27 87.02 88.27 87.11 88.36 87.11 88.36 87.2 88.44 87.2 88.44 87.28 88.53 87.37 88.62 87.46 88.71 87.46 88.79 87.46 88.88 87.46 88.97 87.46 89.06 87.46 89.14 87.46 89.14 87.55 89.23 87.55 89.23 87.64 89.32 87.64 89.32 87.72 89.32 87.81 89.32 87.9 89.41 87.9 89.41 87.98 89.49 87.98 89.49 88.07 89.58 88.07 89.58 88.16 89.67 88.16 89.67 88.25 89.76 88.25 89.84 88.25 89.84 88.16 89.93 88.07 90.02 87.98 90.11 87.98 90.19 87.98 90.28 87.98 90.37 87.98 90.46 87.98 90.54 87.98 90.63 87.98 90.72 87.98 90.81 87.98 90.89 87.98 90.98 87.98 91.07 87.98 91.16 87.98 91.24 87.98 91.33 87.98 91.42 87.98 91.5 87.98 91.59 87.98 91.59 88.07 91.68 88.07 91.77 88.07 91.86 88.07 91.94 88.07 92.03 88.07 92.12 88.07 92.2 87.98 92.29 87.98 92.38 87.98 92.47 87.98 92.56 88.07 92.64 88.07 92.64 88.16 92.73 88.16 92.82 88.25 92.91 88.25 92.99 88.33 93.08 88.33 93.17 88.33 93.25 88.33 93.34 88.33 93.34 88.42 93.43 88.42 93.52 88.42 93.61 88.42 93.69 88.51 93.78 88.51 93.87 88.6 93.95 88.68 94.04 88.68 94.04 88.77 94.13 88.77 94.13 88.86 94.22 88.86 94.22 88.95 94.31 88.95 94.31 89.03 94.39 89.03 94.48 89.12 94.48 89.21 94.57 89.21 94.57 89.3 94.66 89.3 94.66 89.38 94.74 89.38 94.74 89.47 94.83 89.47 94.92 89.47 95 89.47 95.09 89.47 95.18 89.47 95.27 89.47 95.35 89.47 95.44 89.47 95.53 89.47 95.62 89.47 95.62 89.56 95.7 89.56 95.7 89.65 95.7 89.73 95.79 89.73 95.88 89.73 95.97 89.73 96.05 89.73 96.14 89.73 96.14 89.82 96.23 89.82 96.23 89.91 96.32 90 96.4 90 96.49 90 96.58 90 96.67 89.91 96.67 89.82 96.75 89.82 96.75 89.73 96.84 89.65 96.84 89.56 96.92 89.56 97.01 89.47 97.1 89.47 97.19 89.38 97.27 89.38 97.36 89.38 97.45 89.38 97.45 89.3 97.54 89.3 97.54 89.21 97.62 89.12 97.62 89.03 97.71 89.03 97.8 89.03 97.89 89.03 97.97 89.12 98.06 89.12 98.06 89.21 98.15 89.21 98.24 89.3 98.32 89.3 98.32 89.38 98.41 89.38 98.5 89.38 98.59 89.38 98.59 89.47 98.67 89.47 98.76 89.56 98.85 89.56 98.94 89.56 98.94 89.47 99.02 89.38 99.02 89.3 99.02 89.21 99.02 89.12 99.11 89.12 99.11 89.03 99.2 88.95 99.28 88.95 99.37 88.86 99.46 88.68 99.55 88.68 99.64 88.6 99.64 88.51 99.72 88.51 99.81 88.51 99.9 88.6 99.98 88.6 100.07 88.6 100.16 88.6 100.25 88.6 100.33 88.6 100.42 88.68 100.51 88.68 100.6 88.77 100.69 88.77 100.69 88.86 100.77 88.86 100.86 88.95 100.95 88.95 101.03 89.03 101.12 89.03 101.21 89.03 101.3 89.03 101.39 89.03 101.47 89.12 101.56 89.12 101.65 89.12 101.65 89.03 101.73 89.03 101.82 89.03 101.91 89.03 102 89.03 102 89.12 102.08 89.12 102.08 89.21 102.17 89.21 102.26 89.3 102.26 89.38 102.35 89.38 102.44 89.47 102.52 89.56 102.61 89.56 102.61 89.65 102.7 89.65 102.7 89.73 102.78 89.73 102.87 89.73 102.96 89.73 102.96 89.82 103.05 89.82 103.13 89.82 103.22 89.82 103.31 89.82 103.31 89.73 103.4 89.65 103.4 89.56 103.48 89.47 103.57 89.38 103.57 89.3 103.66 89.21 103.66 89.12 103.75 89.12 103.75 89.03 103.83 89.03 103.92 89.03 104.01 89.03 104.1 89.03 104.18 89.03 104.27 89.03 104.36 88.95 104.45 88.95 104.53 88.95 104.53 88.86 104.62 88.86 104.62 88.77 104.71 88.77 104.8 88.68 104.88 88.68 104.88 88.6 104.97 88.6 104.97 88.51 105.06 88.51 105.15 88.51 105.23 88.42 105.32 88.42 105.41 88.33 105.5 88.33 105.5 88.25 105.58 88.25 105.58 88.16 105.67 88.07 105.76 87.98 105.76 87.9 105.85 87.9 105.85 87.81 105.85 87.72 105.85 87.64 105.85 87.55 105.85 87.46 105.85 87.37 105.85 87.28 105.76 87.28 105.76 87.2 105.76 87.11 105.85 87.11 105.85 87.02 105.85 86.94 105.93 86.94 105.93 86.85 106.02 86.85 106.11 86.85 106.11 86.76 106.2 86.67 106.2 86.58 106.28 86.58 106.28 86.5 106.37 86.41 106.46 86.32 106.55 86.32 106.55 86.23 106.63 86.23 106.72 86.23 106.81 86.23 106.9 86.23 106.98 86.23 107.07 86.23 107.16 86.23 107.25 86.23 107.33 86.14 107.42 86.06 107.51 86.06 107.51 85.97 107.6 85.97 107.6 85.88 107.68 85.79 107.68 85.7 107.68 85.62 107.77 85.53 107.77 85.44 107.77 85.36 107.77 85.27 107.77 85.18 107.86 85.18 107.86 85.09 107.86 85 107.86 84.92 107.95 84.83 107.95 84.74 107.95 84.66 108.03 84.57 108.03 84.48 108.03 84.39 108.12 84.31 108.12 84.22 108.21 84.04 108.21 83.95 108.3 83.78 108.38 83.61 108.38 83.52 108.47 83.43 108.56 83.34 108.64 83.34 108.73 83.25 108.82 83.25 108.91 83.17 109 83.17 109.08 83.08 109.17 82.99 109.26 82.91 109.34 82.91 109.43 82.82 109.52 82.73 109.61 82.73 109.69 82.64 109.78 82.64 109.87 82.64 109.96 82.56 110.05 82.47 110.13 82.47 110.13 82.38 110.22 82.29 110.31 82.2 110.39 82.11 110.48 82.03 110.57 81.94 110.66 81.85 110.75 81.76 110.83 81.76 110.91 81.67 111 81.67 111.09 81.67 111.26 81.59 111.35 81.59 111.44 81.59 111.53 81.59 111.61 81.59 111.7 81.59 111.79 81.5 111.88 81.41 111.96 81.33 111.96 81.24 112.05 81.15 112.05 81.06 112.14 80.89 112.14 80.8 112.14 80.71 112.23 80.63 112.23 80.54 112.31 80.54 112.31 80.45 112.4 80.36 112.4 80.28 112.49 80.28 112.49 80.19 112.58 80.1 112.66 80.01 112.66 79.93 112.75 79.84 112.75 79.75 112.75 79.66 112.75 79.58 112.75 79.49 112.75 79.4 112.66 79.31 112.66 79.23 112.58 79.14 112.49 79.05 112.49 78.96 112.4 78.88 112.31 78.79 112.31 78.7 112.23 78.61 112.14 78.53 112.14 78.44 112.05 78.44 112.05 78.35 111.96 78.26 111.88 78.17 111.88 78.08 111.79 78 111.79 77.91 111.7 77.91 111.7 77.82 111.61 77.73 111.61 77.65 111.53 77.65 111.53 77.56 111.44 77.47 111.35 77.38 111.35 77.3 111.26 77.21 111.18 77.12 111.18 77.03 111.09 77.03 111.09 76.95 111 76.86 110.91 76.77 110.83 76.68 110.75 76.68 110.66 76.68 110.57 76.68 110.48 76.68 110.39 76.68 110.31 76.6 110.22 76.6 110.13 76.6 110.05 76.6 109.96 76.6 109.87 76.6 109.78 76.6 109.78 76.68 109.69 76.68 109.61 76.68 109.52 76.6 109.43 76.6 109.34 76.6 109.26 76.6 109.26 76.51 109.17 76.51 109.08 76.51 109 76.51 108.91 76.42 108.82 76.42 108.73 76.42 108.64 76.42 108.56 76.51 108.47 76.51 108.38 76.51 108.3 76.51 108.21 76.51 108.12 76.51 108.12 76.6 108.03 76.6 108.03 76.51 107.95 76.51 107.86 76.51 107.86 76.42 107.77 76.42 107.68 76.33 107.68 76.25 107.6 76.25 107.51 76.16 107.42 76.16 107.33 76.07 107.25 76.07 107.25 75.98 107.33 75.98 107.33 75.9 107.33 75.81 107.42 75.72 107.51 75.63 107.51 75.55 107.6 75.55 107.6 75.46 107.68 75.46 107.77 75.46 107.86 75.46 107.86 75.37 107.95 75.37 108.03 75.28 108.03 75.2 108.03 75.11 107.95 75.11 107.95 75.02 107.95 74.93 107.86 74.93 107.86 74.85 107.77 74.85 107.77 74.76 107.77 74.67 107.68 74.67 107.68 74.58 107.6 74.5 107.6 74.41 107.6 74.32 107.51 74.23 107.51 74.14 107.42 74.05 107.42 73.97 107.42 73.88 107.42 73.79 107.33 73.79 107.33 73.7 107.33 73.62 107.33 73.53 107.33 73.44 107.42 73.44 107.42 73.35 107.51 73.27 107.51 73.18 107.6 73.09 107.6 73 107.6 72.92 107.68 72.83 107.68 72.74 107.68 72.65 107.68 72.57 107.77 72.48 107.77 72.39 107.86 72.3 107.86 72.22 107.86 72.13 107.95 72.04 107.95 71.95 108.03 71.78 107.95 71.69 107.86 71.69 107.86 71.6 107.77 71.6 107.68 71.6 107.68 71.52 107.6 71.52 107.51 71.43 107.42 71.34 107.33 71.34 107.33 71.25 107.33 71.17 107.25 71.08 107.25 70.99 107.16 70.99 107.16 70.91 107.07 70.82 106.98 70.82 106.81 70.73 106.72 70.73 106.63 70.64 106.55 70.64 106.46 70.56 106.37 70.56 106.28 70.47 106.2 70.47 106.11 70.47 106.02 70.47 105.93 70.47 105.93 70.38 105.93 70.29 106.02 70.2 106.02 70.11 106.11 70.11 106.2 70.11 106.28 70.11 106.37 70.02 106.46 70.02 106.55 70.02 106.55 69.94 106.63 69.94 106.63 69.85 106.72 69.76 106.72 69.67 106.81 69.67 106.81 69.59 106.81 69.5 106.81 69.41 106.81 69.33 106.81 69.24 106.81 69.15 106.81 69.06 106.81 68.97 106.81 68.89 106.9 68.89 106.9 68.8 106.9 68.71 106.98 68.71 107.07 68.54 107.07 68.45 107.16 68.45 107.16 68.36 107.16 68.28 107.16 68.19 107.25 68.19 107.25 68.1 107.25 68.01 107.33 68.01 107.33 67.92 107.33 67.84 107.33 67.75 107.42 67.75 107.42 67.66 107.51 67.58 107.6 67.58 107.6 67.49 107.68 67.49 107.77 67.49 107.77 67.4 107.86 67.4 107.95 67.31 108.03 67.31 108.03 67.22 108.12 67.22 108.12 67.14 108.21 67.05 108.21 66.96 108.21 66.88 108.21 66.79 108.21 66.7 108.21 66.61 108.3 66.61 108.38 66.61 108.47 66.61 108.47 66.53 108.56 66.53 108.56 66.44 108.56 66.35 108.56 66.26 108.56 66.17 108.56 66.08 108.56 66 108.56 65.91 108.47 65.91 108.47 65.82 108.47 65.73 108.38 65.73 108.38 65.64 108.3 65.64 108.3 65.56 108.3 65.47 108.38 65.47 108.38 65.38 108.38 65.3 108.47 65.3 108.56 65.3 108.64 65.21 108.64 65.12 108.73 65.12 108.73 65.03 108.82 65.03 108.82 64.94 108.91 64.94 108.91 64.86 108.91 64.77 108.91 64.68 108.91 64.59 108.91 64.51 108.82 64.51 108.91 64.42 108.91 64.33 109 64.33 109.08 64.33 109.08 64.42 109.17 64.42 109.17 64.33 109.17 64.25 109.26 64.25 109.26 64.16 109.34 64.16 109.43 64.16 109.52 64.16 109.52 64.07 109.61 64.07 109.61 63.98 109.61 63.9 109.69 63.9 109.78 63.9 109.78 63.81 109.78 63.72 109.87 63.72 109.87 63.63 109.96 63.63 110.05 63.63 110.05 63.55 110.05 63.46 110.05 63.37 109.96 63.37 109.96 63.28 109.87 63.28 109.78 63.28 109.78 63.2 109.69 63.2 109.69 63.11 109.69 63.02 109.61 63.02 109.61 62.93 109.52 62.93 109.43 62.93 109.34 62.93 109.26 62.93 109.26 62.85 109.17 62.85 109.08 62.85 109 62.85 108.91 62.85 108.82 62.85 108.82 62.76 108.73 62.76 108.64 62.76 108.64 62.67 108.56 62.67 108.56 62.58 108.47 62.58 108.47 62.5 108.38 62.5 108.38 62.41 108.38 62.32 108.38 62.23 108.38 62.14 108.38 62.05 108.38 61.97 108.38 61.88 108.3 61.88 108.3 61.79 108.21 61.79 108.12 61.7 108.03 61.7 108.03 61.62 107.95 61.62 107.95 61.53 107.86 61.44 107.86 61.35 107.77 61.35 107.77 61.27 107.77 61.18 107.68 61.09 107.68 61 107.77 60.92 107.77 60.83 107.86 60.83 107.86 60.74 107.95 60.57 107.95 60.48 107.95 60.39 107.95 60.3 107.95 60.22 107.95 60.13 107.95 60.04 107.95 59.95 107.95 59.87 107.95 59.78 107.95 59.69 107.95 59.6 107.95 59.52 107.95 59.43 108.03 59.43 108.03 59.34 108.12 59.17 108.21 59.17 108.21 59.08 108.3 58.99 108.38 58.99 108.47 58.99 108.56 58.99 108.64 58.9 108.73 58.82 108.73 58.73 108.82 58.64 108.91 58.64 109 58.64 109.08 58.64 109.08 58.55 109.17 58.55 109.26 58.47 109.26 58.38 109.43 58.11 109.52 57.85 109.52 57.67 109.52 57.5 109.61 57.32 109.78 57.15 109.87 56.97 109.87 56.89 110.05 56.8 110.05 56.71 110.13 56.62 110.13 56.45 110.13 56.36 110.13 56.27 110.22 56.1 110.31 56.01 110.31 55.92 110.31 55.84 110.39 55.75 110.48 55.66 110.48 55.57 110.57 55.49 110.57 55.4 110.66 55.31 110.66 55.22 110.75 55.22 110.83 55.14 110.91 55.05 111 54.96 111.09 54.96 111.18 54.88 111.26 54.79 111.35 54.61 111.44 54.61 111.53 54.52 111.53 54.44 111.53 54.35 111.61 54.26 111.61 54.17 111.61 54.08 111.7 53.99 111.7 53.91 111.7 53.82 111.7 53.73 111.7 53.64 111.79 53.64 111.79 53.56 111.88 53.47 111.88 53.38 111.96 53.29 111.96 53.21 112.05 53.12 112.05 53.03 112.05 52.95 112.05 52.86 112.14 52.86 112.14 52.77 112.14 52.59 112.23 52.59 112.23 52.51 112.23 52.42 112.31 52.33 112.31 52.24 112.31 52.16 112.31 52.07 112.31 51.98 112.31 51.9 112.31 51.81 112.31 51.72 112.31 51.63 112.4 51.55 112.4 51.46 112.4 51.37 112.4 51.28 112.4 51.2 112.4 51.11 112.49 51.11 112.49 51.02 112.49 50.93 112.49 50.84 112.49 50.76 112.4 50.76 112.4 50.67 112.31 50.67 112.31 50.58 112.23 50.58 112.14 50.49 112.05 50.49 112.05 50.41 111.96 50.41 111.88 50.32 111.79 50.23 111.7 50.23 111.61 50.23 111.53 50.15 111.35 50.05 111.26 50.05 111.26 49.97 111.18 49.97 111.18 49.88 111.18 49.79 111.09 49.79 111.09 49.7 111 49.62 111 49.53 111 49.44 111 49.35 111 49.27 111 49.18 111 49.09 111 49 111 48.91 111 48.83 111 48.74 111.09 48.74 111.09 48.65 111.09 48.56 111.18 48.56 111.26 48.56 111.35 48.56 111.35 48.65 111.44 48.65 111.53 48.65 111.61 48.65 111.7 48.65 111.79 48.65 111.88 48.74 111.96 48.74 112.05 48.74 112.14 48.74 112.23 48.74 112.31 48.74 112.31 48.65 112.4 48.65 112.49 48.65 112.58 48.65 112.66 48.65 112.75 48.65 112.84 48.65 112.93 48.65 113.01 48.65 112.93 48.56 112.93 48.48 112.93 48.39 112.93 48.3 112.84 48.22 112.84 48.13 112.84 48.04 112.84 47.95 112.84 47.87 112.75 47.87 112.75 47.78 112.75 47.69 112.84 47.69 112.84 47.6 112.84 47.52 112.84 47.43 112.84 47.34 112.93 47.34 113.01 47.34 113.01 47.25 113.01 47.17 113.1 47.17 113.19 47.17 113.19 47.08 113.28 46.99 113.28 46.9 113.19 46.9"/></svg>